G04*
G04 #@! TF.GenerationSoftware,Altium Limited,Altium Designer,24.5.2 (23)*
G04*
G04 Layer_Physical_Order=1*
G04 Layer_Color=255*
%FSLAX25Y25*%
%MOIN*%
G70*
G04*
G04 #@! TF.SameCoordinates,24FF50D2-DFE2-4597-A0F4-7CAA859AE4CF*
G04*
G04*
G04 #@! TF.FilePolarity,Positive*
G04*
G01*
G75*
%ADD11C,0.00600*%
G04:AMPARAMS|DCode=16|XSize=23.62mil|YSize=26.38mil|CornerRadius=2.95mil|HoleSize=0mil|Usage=FLASHONLY|Rotation=0.000|XOffset=0mil|YOffset=0mil|HoleType=Round|Shape=RoundedRectangle|*
%AMROUNDEDRECTD16*
21,1,0.02362,0.02047,0,0,0.0*
21,1,0.01772,0.02638,0,0,0.0*
1,1,0.00591,0.00886,-0.01024*
1,1,0.00591,-0.00886,-0.01024*
1,1,0.00591,-0.00886,0.01024*
1,1,0.00591,0.00886,0.01024*
%
%ADD16ROUNDEDRECTD16*%
%ADD17R,0.02362X0.02126*%
%ADD18R,0.02756X0.02362*%
%ADD19R,0.02126X0.02362*%
%ADD20R,0.04528X0.01181*%
%ADD21R,0.04528X0.02362*%
G04:AMPARAMS|DCode=22|XSize=23.62mil|YSize=26.38mil|CornerRadius=2.95mil|HoleSize=0mil|Usage=FLASHONLY|Rotation=270.000|XOffset=0mil|YOffset=0mil|HoleType=Round|Shape=RoundedRectangle|*
%AMROUNDEDRECTD22*
21,1,0.02362,0.02047,0,0,270.0*
21,1,0.01772,0.02638,0,0,270.0*
1,1,0.00591,-0.01024,-0.00886*
1,1,0.00591,-0.01024,0.00886*
1,1,0.00591,0.01024,0.00886*
1,1,0.00591,0.01024,-0.00886*
%
%ADD22ROUNDEDRECTD22*%
%ADD23R,0.05343X0.02253*%
G04:AMPARAMS|DCode=24|XSize=53.43mil|YSize=22.53mil|CornerRadius=11.26mil|HoleSize=0mil|Usage=FLASHONLY|Rotation=0.000|XOffset=0mil|YOffset=0mil|HoleType=Round|Shape=RoundedRectangle|*
%AMROUNDEDRECTD24*
21,1,0.05343,0.00000,0,0,0.0*
21,1,0.03091,0.02253,0,0,0.0*
1,1,0.02253,0.01545,0.00000*
1,1,0.02253,-0.01545,0.00000*
1,1,0.02253,-0.01545,0.00000*
1,1,0.02253,0.01545,0.00000*
%
%ADD24ROUNDEDRECTD24*%
%ADD25R,0.01378X0.02362*%
%ADD26R,0.02362X0.01378*%
G04:AMPARAMS|DCode=27|XSize=125.98mil|YSize=68.9mil|CornerRadius=2.07mil|HoleSize=0mil|Usage=FLASHONLY|Rotation=90.000|XOffset=0mil|YOffset=0mil|HoleType=Round|Shape=RoundedRectangle|*
%AMROUNDEDRECTD27*
21,1,0.12598,0.06476,0,0,90.0*
21,1,0.12185,0.06890,0,0,90.0*
1,1,0.00413,0.03238,0.06093*
1,1,0.00413,0.03238,-0.06093*
1,1,0.00413,-0.03238,-0.06093*
1,1,0.00413,-0.03238,0.06093*
%
%ADD27ROUNDEDRECTD27*%
G04:AMPARAMS|DCode=28|XSize=35.43mil|YSize=68.9mil|CornerRadius=1.95mil|HoleSize=0mil|Usage=FLASHONLY|Rotation=90.000|XOffset=0mil|YOffset=0mil|HoleType=Round|Shape=RoundedRectangle|*
%AMROUNDEDRECTD28*
21,1,0.03543,0.06500,0,0,90.0*
21,1,0.03154,0.06890,0,0,90.0*
1,1,0.00390,0.03250,0.01577*
1,1,0.00390,0.03250,-0.01577*
1,1,0.00390,-0.03250,-0.01577*
1,1,0.00390,-0.03250,0.01577*
%
%ADD28ROUNDEDRECTD28*%
G04:AMPARAMS|DCode=29|XSize=9.55mil|YSize=33.06mil|CornerRadius=4.77mil|HoleSize=0mil|Usage=FLASHONLY|Rotation=270.000|XOffset=0mil|YOffset=0mil|HoleType=Round|Shape=RoundedRectangle|*
%AMROUNDEDRECTD29*
21,1,0.00955,0.02351,0,0,270.0*
21,1,0.00000,0.03306,0,0,270.0*
1,1,0.00955,-0.01176,0.00000*
1,1,0.00955,-0.01176,0.00000*
1,1,0.00955,0.01176,0.00000*
1,1,0.00955,0.01176,0.00000*
%
%ADD29ROUNDEDRECTD29*%
G04:AMPARAMS|DCode=30|XSize=33.06mil|YSize=9.55mil|CornerRadius=4.77mil|HoleSize=0mil|Usage=FLASHONLY|Rotation=270.000|XOffset=0mil|YOffset=0mil|HoleType=Round|Shape=RoundedRectangle|*
%AMROUNDEDRECTD30*
21,1,0.03306,0.00000,0,0,270.0*
21,1,0.02351,0.00955,0,0,270.0*
1,1,0.00955,0.00000,-0.01176*
1,1,0.00955,0.00000,0.01176*
1,1,0.00955,0.00000,0.01176*
1,1,0.00955,0.00000,-0.01176*
%
%ADD30ROUNDEDRECTD30*%
%ADD31R,0.00955X0.03306*%
%ADD32R,0.06102X0.05118*%
%ADD33R,0.04724X0.04724*%
%ADD34R,0.03150X0.01575*%
%ADD35R,0.01575X0.03150*%
%ADD36R,0.03150X0.03150*%
%ADD46R,0.08071X0.08071*%
G04:AMPARAMS|DCode=51|XSize=39.37mil|YSize=70.87mil|CornerRadius=19.68mil|HoleSize=0mil|Usage=FLASHONLY|Rotation=270.000|XOffset=0mil|YOffset=0mil|HoleType=Round|Shape=RoundedRectangle|*
%AMROUNDEDRECTD51*
21,1,0.03937,0.03150,0,0,270.0*
21,1,0.00000,0.07087,0,0,270.0*
1,1,0.03937,-0.01575,0.00000*
1,1,0.03937,-0.01575,0.00000*
1,1,0.03937,0.01575,0.00000*
1,1,0.03937,0.01575,0.00000*
%
%ADD51ROUNDEDRECTD51*%
G04:AMPARAMS|DCode=52|XSize=39.37mil|YSize=86.61mil|CornerRadius=19.68mil|HoleSize=0mil|Usage=FLASHONLY|Rotation=270.000|XOffset=0mil|YOffset=0mil|HoleType=Round|Shape=RoundedRectangle|*
%AMROUNDEDRECTD52*
21,1,0.03937,0.04724,0,0,270.0*
21,1,0.00000,0.08661,0,0,270.0*
1,1,0.03937,-0.02362,0.00000*
1,1,0.03937,-0.02362,0.00000*
1,1,0.03937,0.02362,0.00000*
1,1,0.03937,0.02362,0.00000*
%
%ADD52ROUNDEDRECTD52*%
%ADD58R,0.01575X0.01575*%
%ADD59C,0.02000*%
%ADD60C,0.01500*%
%ADD61C,0.01001*%
%ADD62C,0.01200*%
%ADD63C,0.00603*%
%ADD64R,0.06400X0.06400*%
%ADD65C,0.06400*%
%ADD66C,0.04000*%
%ADD67R,0.04000X0.04000*%
%ADD68R,0.04000X0.04000*%
%ADD69C,0.02400*%
G36*
X256000Y89000D02*
X255000Y88000D01*
Y84000D01*
X247500D01*
X247500Y86800D01*
X247989Y87289D01*
X249207Y90500D01*
X254500D01*
X256000Y89000D01*
D02*
G37*
G36*
X83500Y86500D02*
X90400D01*
Y78800D01*
X88200D01*
X86100Y80900D01*
X81000D01*
Y85000D01*
X83000Y87000D01*
X83500Y86500D01*
D02*
G37*
G36*
X60500Y73400D02*
X63900Y70000D01*
X65076Y70000D01*
X65500Y69576D01*
Y69500D01*
X65965Y69035D01*
Y68965D01*
X65900Y68900D01*
Y67680D01*
X64867Y67473D01*
X60600Y63300D01*
X58800Y63300D01*
X58264Y62764D01*
X57819D01*
Y62319D01*
X55205Y59705D01*
X54576Y59924D01*
X53551Y68852D01*
X53951Y69300D01*
X54900D01*
X59400Y73800D01*
X60500Y73800D01*
X60500Y73400D01*
D02*
G37*
G36*
X56000Y58200D02*
X58500D01*
X58700Y58400D01*
X60776D01*
X61119Y57908D01*
X60600Y56500D01*
X55323Y56677D01*
X54900Y57100D01*
X54725Y58627D01*
X55297Y58903D01*
X56000Y58200D01*
D02*
G37*
G36*
X43300Y65700D02*
Y59938D01*
Y53300D01*
X35000D01*
X34850Y53650D01*
X34511Y66770D01*
X34930Y67200D01*
X41800D01*
X43300Y65700D01*
D02*
G37*
G36*
X251200Y38500D02*
X227800D01*
Y61700D01*
X251200D01*
Y38500D01*
D02*
G37*
G36*
X39500Y51000D02*
Y50500D01*
X46000D01*
X56700Y39800D01*
X69000D01*
Y36500D01*
X57000D01*
X56700Y36800D01*
Y37800D01*
X46000Y48500D01*
X39000D01*
X38350Y48150D01*
X36500D01*
X35500Y49000D01*
Y51000D01*
X36500Y52000D01*
X38500D01*
X39500Y51000D01*
D02*
G37*
G36*
X43400Y46600D02*
Y30900D01*
X43000Y30500D01*
X34600D01*
Y47000D01*
X43000D01*
X43400Y46600D01*
D02*
G37*
G36*
X118986Y48569D02*
X118000Y17500D01*
X114000D01*
X102000Y16500D01*
X96040Y15765D01*
X85814Y16500D01*
X82101Y25000D01*
X63000D01*
X60820Y22820D01*
X60300D01*
X59910Y22742D01*
X59579Y22521D01*
X59578Y22520D01*
X51980D01*
X49500Y25000D01*
Y30500D01*
X54100Y35100D01*
X73464D01*
X92099Y49000D01*
X118569D01*
X118986Y48569D01*
D02*
G37*
G36*
X69093Y16000D02*
X68000D01*
X66200Y15000D01*
X48250Y14805D01*
X47845Y15248D01*
X48000Y16800D01*
X50600Y18000D01*
X51000Y19000D01*
X51700Y19700D01*
Y21500D01*
X60000D01*
X60300Y21800D01*
X69093D01*
Y16000D01*
D02*
G37*
D11*
X92882Y74700D02*
X100882Y66701D01*
X84832Y74700D02*
X92882D01*
X83000Y76532D02*
X84832Y74700D01*
X253000Y13500D02*
X259520Y20020D01*
X245000Y13500D02*
X253000D01*
X259520Y20020D02*
Y22378D01*
X259583Y22441D01*
X238073Y6573D02*
X245000Y13500D01*
X236461Y5000D02*
X238035Y6573D01*
X235000Y5000D02*
X236461D01*
X238035Y6573D02*
X238073D01*
X250000Y10000D02*
X252682D01*
X262784Y20102D01*
Y22296D01*
X262929Y22441D01*
X245000Y5000D02*
X250000Y10000D01*
X200879Y38000D02*
X201780Y38901D01*
X210284D01*
X200500Y38000D02*
X200879D01*
X210284Y38901D02*
X210870Y39487D01*
Y39673D02*
X211157Y39961D01*
X210870Y39487D02*
Y39673D01*
X198000Y41000D02*
X204000D01*
X205248Y42248D02*
X210098D01*
X204000Y41000D02*
X205248Y42248D01*
X210098D02*
X210870Y43020D01*
X211658D02*
X211945Y43307D01*
X210870Y43020D02*
X211658D01*
X211157Y39961D02*
X211945D01*
X158000Y61000D02*
X171000Y48000D01*
Y40182D02*
Y48000D01*
X203500Y19000D02*
X211213D01*
X200000Y22500D02*
X203500Y19000D01*
X188682Y22500D02*
X200000D01*
X171000Y40182D02*
X188682Y22500D01*
X186566Y18500D02*
X200000D01*
X167000Y38066D02*
X186566Y18500D01*
X211213Y19000D02*
X211799Y18414D01*
Y14500D02*
Y18414D01*
X167000Y38066D02*
Y45000D01*
X151000Y61000D02*
X167000Y45000D01*
X200000Y18500D02*
X201799Y16701D01*
X134879Y46500D02*
X137500D01*
X146500Y21000D02*
Y37500D01*
X134000Y47379D02*
Y52621D01*
X137500Y46500D02*
X146500Y37500D01*
X134000Y47379D02*
X134879Y46500D01*
X141642Y16142D02*
X146500Y21000D01*
X141642Y16142D02*
X155650D01*
X124350D02*
X141642D01*
X134000Y52621D02*
X139000Y57621D01*
Y61414D01*
X138414Y62000D02*
X139000Y61414D01*
X120761Y62000D02*
X138414D01*
X119799Y62961D02*
X120761Y62000D01*
X115982Y66760D02*
X119213D01*
X115742Y67000D02*
X115982Y66760D01*
X119213D02*
X119799Y66175D01*
Y62961D02*
Y66175D01*
X82900Y76632D02*
X83000Y76532D01*
X80039Y76632D02*
X82900D01*
X79671Y77000D02*
X80039Y76632D01*
X78541Y77000D02*
X79671D01*
X83000Y78969D02*
X85031D01*
X78541D02*
X83000D01*
X85031D02*
X86819Y77181D01*
X94350D01*
X176586Y18582D02*
X178717D01*
X176000Y19168D02*
Y21284D01*
Y19168D02*
X176586Y18582D01*
X178717D02*
X179000Y18299D01*
X173197Y21870D02*
X175414D01*
X176000Y21284D01*
X251500Y81000D02*
X252674Y79826D01*
X240000Y84000D02*
X243000Y81000D01*
X251500D01*
X252674Y77775D02*
X252890Y77559D01*
X252674Y77775D02*
Y79826D01*
X74960Y88960D02*
X75000Y89000D01*
X74937Y84541D02*
X74960Y84564D01*
Y88960D01*
X83000Y84500D02*
X83268Y84768D01*
X85647D01*
X85879Y85000D01*
X89299D01*
X38269Y71299D02*
X41000D01*
X36501Y69532D02*
X38269Y71299D01*
X31698Y69532D02*
X36501D01*
X30127Y71102D02*
X31698Y69532D01*
X24764Y71102D02*
X30127D01*
X40882Y84819D02*
Y88114D01*
X34966Y88700D02*
X40296D01*
X40882Y84819D02*
X41000Y84701D01*
X40296Y88700D02*
X40882Y88114D01*
X29180Y82913D02*
X34966Y88700D01*
X24764Y82913D02*
X29180D01*
X181132Y58039D02*
X206789D01*
X207076Y57752D02*
X210098D01*
X210870Y56980D01*
X174000Y59000D02*
X180172D01*
X210870Y56980D02*
X211658D01*
X211945Y56693D01*
X172000Y61000D02*
X174000Y59000D01*
X206789Y58039D02*
X207076Y57752D01*
X180172Y59000D02*
X181132Y58039D01*
X211157Y53347D02*
X211945D01*
X210870Y53634D02*
Y53820D01*
X210284Y54405D02*
X210870Y53820D01*
X207594Y54405D02*
X210284D01*
X206000Y56000D02*
X207594Y54405D01*
X170000Y56000D02*
X206000D01*
X210870Y53634D02*
X211157Y53347D01*
X36032Y13299D02*
X41000D01*
X35985Y13252D02*
X36032Y13299D01*
X31698Y13252D02*
X35985D01*
X24764Y15118D02*
X29831D01*
X31698Y13252D01*
X38626Y28957D02*
X40882Y26701D01*
X32000Y28957D02*
X38626D01*
X31000Y27957D02*
X32000Y28957D01*
X29972Y26929D02*
X31000Y27957D01*
X40882Y26701D02*
X41000D01*
X24764Y26929D02*
X29972D01*
X149000Y32776D02*
X154477Y27299D01*
X149000Y32776D02*
Y53000D01*
X154477Y27299D02*
X165000D01*
Y21721D02*
Y27299D01*
X156142Y16142D02*
X161721Y21721D01*
X165000D01*
X155650Y16142D02*
X156142D01*
X187319Y79000D02*
X195299D01*
X165000Y68721D02*
X177040D01*
X187319Y79000D01*
X162291Y68721D02*
X165000D01*
X159713Y66142D02*
X162291Y68721D01*
X124350Y66142D02*
X159713D01*
X115742Y74258D02*
X123858Y66142D01*
X115742Y74258D02*
Y81000D01*
X123858Y66142D02*
X124350D01*
X108258Y67650D02*
Y70740D01*
X101197Y63496D02*
X103234D01*
X105624Y65887D02*
X106494D01*
X103234Y63496D02*
X105624Y65887D01*
X106494D02*
X108258Y67650D01*
X101000Y63299D02*
X101197Y63496D01*
X101000Y71547D02*
X106712Y77260D01*
X108258D01*
X101000Y66701D02*
Y71547D01*
X100882Y66701D02*
X101000D01*
X94350Y77181D02*
X94919Y77750D01*
X97686D01*
X83000Y73128D02*
X84128Y72000D01*
X81096Y75032D02*
X83000Y73128D01*
X84128Y72000D02*
X88000D01*
X78541Y75032D02*
X81096D01*
X108258Y63260D02*
X108744D01*
X109323Y63838D01*
Y65886D01*
X112429Y68993D02*
Y78348D01*
X109323Y65886D02*
X112429Y68993D01*
X109478Y81299D02*
X112429Y78348D01*
X101000Y81299D02*
X109478D01*
X97686Y77750D02*
X100319Y80382D01*
Y80736D02*
X100882Y81299D01*
X100319Y80382D02*
Y80736D01*
X100882Y81299D02*
X101000D01*
Y84701D02*
X101020Y84720D01*
X108238D01*
X108258Y84740D01*
X198701Y84000D02*
X240000D01*
X198701Y79000D02*
Y84000D01*
X195299Y87714D02*
X195885Y88300D01*
X238300D01*
X245000Y95000D01*
X195299Y84000D02*
Y87714D01*
X165000Y61000D02*
X170000Y56000D01*
X66000Y65000D02*
X67063Y66063D01*
X65000Y64000D02*
X66000Y65000D01*
X65000Y60720D02*
Y64000D01*
X67063Y66063D02*
Y69459D01*
X60010Y60711D02*
X64990D01*
X65000Y60720D01*
X60000Y60701D02*
X60010Y60711D01*
X74937Y68328D02*
Y69459D01*
X86584Y56681D02*
X86736D01*
X74937Y68328D02*
X86584Y56681D01*
X86736D02*
X87299Y56118D01*
Y56000D02*
Y56118D01*
X80236Y73063D02*
X83000Y70299D01*
X86618Y66681D01*
X86736D01*
X87299Y66000D02*
Y66118D01*
X78541Y73063D02*
X80236D01*
X86736Y66681D02*
X87299Y66118D01*
Y61000D02*
Y66118D01*
X215100Y5100D02*
Y14400D01*
X215000Y5000D02*
X215100Y5100D01*
Y14400D02*
X215201Y14500D01*
X205000Y5000D02*
X205100Y5100D01*
Y14400D02*
X205201Y14500D01*
X205100Y5100D02*
Y14400D01*
X201799Y14500D02*
Y16701D01*
X189300Y70079D02*
X211945D01*
X188379Y71000D02*
X189300Y70079D01*
X188000Y71000D02*
X188379D01*
X181961Y60039D02*
X211945D01*
X179000Y63000D02*
X181961Y60039D01*
X196000Y63000D02*
X196386Y63386D01*
X211945D01*
X192000Y67000D02*
X192268Y66732D01*
X211945D01*
X207122Y72300D02*
X208248Y73425D01*
X203882Y72300D02*
X207122D01*
X203182Y73000D02*
X203882Y72300D01*
X195000Y73000D02*
X203182D01*
X208248Y73425D02*
X211945D01*
X181627Y90300D02*
X220300D01*
X225000Y95000D01*
X173197Y81870D02*
X181627Y90300D01*
X173000Y81870D02*
X173197D01*
X176905Y81701D02*
X179000D01*
X176319Y81115D02*
X176905Y81701D01*
X176319Y79158D02*
Y81115D01*
X173001Y78131D02*
X175292D01*
X176319Y79158D01*
X173000Y78130D02*
X173001Y78131D01*
X168870Y81870D02*
X173000D01*
X166000Y79000D02*
X168870Y81870D01*
X177000Y38000D02*
X180182D01*
X185118Y40700D02*
X187818Y38000D01*
X182882Y40700D02*
X185118D01*
X187818Y38000D02*
X188000D01*
X180182D02*
X182882Y40700D01*
X190700Y35300D02*
X201618D01*
X202933Y36614D02*
X211945D01*
X201618Y35300D02*
X202933Y36614D01*
X188000Y38000D02*
X190700Y35300D01*
X197449Y33268D02*
X211945D01*
X196682Y32500D02*
X197449Y33268D01*
X193500Y32500D02*
X196682D01*
X191000Y30000D02*
X193500Y32500D01*
X190607Y26575D02*
X211945D01*
X184000Y33182D02*
X190607Y26575D01*
X184000Y33182D02*
Y38000D01*
X198079Y29921D02*
X211945D01*
X198000Y30000D02*
X198079Y29921D01*
X246197Y67504D02*
Y77559D01*
X216079Y73543D02*
Y77559D01*
Y22441D02*
Y32496D01*
X246197Y22441D02*
Y26457D01*
X249543Y22441D02*
Y32496D01*
X239504Y22441D02*
Y26457D01*
X242850Y22441D02*
Y32496D01*
X232811Y22441D02*
Y26457D01*
X236157Y22441D02*
Y32496D01*
X226118Y22441D02*
Y26457D01*
X229465Y22441D02*
Y32496D01*
X219425Y22441D02*
Y26457D01*
X222772Y22441D02*
Y32496D01*
Y73543D02*
Y77559D01*
X219425Y67504D02*
Y77559D01*
X229465Y73543D02*
Y77559D01*
X226118Y67504D02*
Y77559D01*
X236157Y73543D02*
Y77559D01*
X232811Y67504D02*
Y77559D01*
X239504Y67504D02*
Y77559D01*
X239500Y67500D02*
X239504Y67504D01*
X242850Y73543D02*
Y77559D01*
X249543Y73543D02*
Y77559D01*
X249500Y73500D02*
X249543Y73543D01*
D16*
X42279Y37000D02*
D03*
X45720D02*
D03*
X265721Y85500D02*
D03*
X262280D02*
D03*
X42279Y63000D02*
D03*
X45720D02*
D03*
X72280Y56000D02*
D03*
X75721D02*
D03*
X72280Y61000D02*
D03*
X75721D02*
D03*
X262280Y14500D02*
D03*
X265721D02*
D03*
X92721Y80000D02*
D03*
X89280D02*
D03*
X51279Y68000D02*
D03*
X54720D02*
D03*
Y85000D02*
D03*
X51279D02*
D03*
X248721Y85500D02*
D03*
X245280D02*
D03*
X253780D02*
D03*
X257221D02*
D03*
D17*
X179000Y21701D02*
D03*
Y18299D02*
D03*
X101000Y84701D02*
D03*
Y81299D02*
D03*
Y63299D02*
D03*
Y66701D02*
D03*
X41000Y13299D02*
D03*
Y16701D02*
D03*
Y26701D02*
D03*
Y23299D02*
D03*
X179000Y81701D02*
D03*
Y78299D02*
D03*
X60000Y57299D02*
D03*
Y60701D02*
D03*
X41000Y81299D02*
D03*
Y84701D02*
D03*
Y74701D02*
D03*
Y71299D02*
D03*
X165000Y27299D02*
D03*
Y30701D02*
D03*
D18*
X173000Y21870D02*
D03*
Y18130D02*
D03*
Y78130D02*
D03*
Y81870D02*
D03*
D19*
X211799Y14500D02*
D03*
X215201D02*
D03*
X201799D02*
D03*
X205201D02*
D03*
X68898Y51000D02*
D03*
X72299D02*
D03*
X75701D02*
D03*
X72299D02*
D03*
X92701Y85000D02*
D03*
X89299D02*
D03*
X51299Y73500D02*
D03*
X54701D02*
D03*
X51299Y78500D02*
D03*
X54701D02*
D03*
X87299Y56000D02*
D03*
X90701D02*
D03*
Y66000D02*
D03*
X87299D02*
D03*
X90701Y61000D02*
D03*
X87299D02*
D03*
X195299Y84000D02*
D03*
X198701D02*
D03*
X195299Y79000D02*
D03*
X198701D02*
D03*
X191898Y51800D02*
D03*
X195299D02*
D03*
X191898Y44800D02*
D03*
X195299D02*
D03*
X198701Y51800D02*
D03*
X195299D02*
D03*
X198701Y44800D02*
D03*
X195299D02*
D03*
D20*
X24764Y84882D02*
D03*
Y82913D02*
D03*
Y80945D02*
D03*
Y78976D02*
D03*
Y77008D02*
D03*
Y75039D02*
D03*
Y73071D02*
D03*
Y71102D02*
D03*
Y15118D02*
D03*
Y17087D02*
D03*
Y19055D02*
D03*
Y21024D02*
D03*
Y22992D02*
D03*
Y24961D02*
D03*
Y26929D02*
D03*
Y28898D02*
D03*
D21*
Y68543D02*
D03*
Y87441D02*
D03*
Y90591D02*
D03*
Y65394D02*
D03*
Y9409D02*
D03*
Y34606D02*
D03*
Y31457D02*
D03*
Y12559D02*
D03*
D22*
X65000Y60720D02*
D03*
Y57279D02*
D03*
X58000Y34280D02*
D03*
Y37721D02*
D03*
Y20279D02*
D03*
Y23720D02*
D03*
X53000D02*
D03*
Y20279D02*
D03*
X165000Y18280D02*
D03*
Y21721D02*
D03*
Y68721D02*
D03*
Y65280D02*
D03*
D23*
X108258Y84740D02*
D03*
Y70740D02*
D03*
D24*
Y77260D02*
D03*
X115742Y81000D02*
D03*
X108258Y63260D02*
D03*
X115742Y67000D02*
D03*
D25*
X35280Y37000D02*
D03*
X32721D02*
D03*
Y63000D02*
D03*
X35280D02*
D03*
D26*
X33500Y18000D02*
D03*
Y15441D02*
D03*
Y22000D02*
D03*
Y24559D02*
D03*
Y71720D02*
D03*
Y74279D02*
D03*
Y82279D02*
D03*
Y79720D02*
D03*
D27*
X90303Y29000D02*
D03*
D28*
X65697Y19945D02*
D03*
Y29000D02*
D03*
Y38055D02*
D03*
D29*
X78541Y80937D02*
D03*
Y78969D02*
D03*
Y77000D02*
D03*
Y75032D02*
D03*
Y73063D02*
D03*
X63459D02*
D03*
Y75032D02*
D03*
Y77000D02*
D03*
Y78969D02*
D03*
Y80937D02*
D03*
D30*
X74937Y69459D02*
D03*
X72969D02*
D03*
X71000D02*
D03*
X69032D02*
D03*
X67063D02*
D03*
Y84541D02*
D03*
X69032D02*
D03*
X71000D02*
D03*
X72969D02*
D03*
D31*
X74937D02*
D03*
D32*
X155650Y16142D02*
D03*
X124350D02*
D03*
X155650Y33858D02*
D03*
X124350D02*
D03*
X155650Y66142D02*
D03*
X124350D02*
D03*
X155650Y83858D02*
D03*
X124350D02*
D03*
D33*
X239504Y56496D02*
D03*
X233008D02*
D03*
Y50000D02*
D03*
Y43504D02*
D03*
X239504D02*
D03*
X246000D02*
D03*
X239504Y50000D02*
D03*
X246000D02*
D03*
D34*
X267063Y73425D02*
D03*
Y70079D02*
D03*
Y66732D02*
D03*
Y63386D02*
D03*
Y60039D02*
D03*
Y56693D02*
D03*
Y53347D02*
D03*
Y50000D02*
D03*
Y46654D02*
D03*
Y43307D02*
D03*
Y39961D02*
D03*
Y36614D02*
D03*
Y33268D02*
D03*
Y29921D02*
D03*
Y26575D02*
D03*
X211945D02*
D03*
Y29921D02*
D03*
Y33268D02*
D03*
Y36614D02*
D03*
Y39961D02*
D03*
Y43307D02*
D03*
Y46654D02*
D03*
Y50000D02*
D03*
Y53347D02*
D03*
Y56693D02*
D03*
Y60039D02*
D03*
Y63386D02*
D03*
Y66732D02*
D03*
Y70079D02*
D03*
Y73425D02*
D03*
D35*
X262929Y22441D02*
D03*
X259583D02*
D03*
X256236D02*
D03*
X252890D02*
D03*
X249543D02*
D03*
X246197D02*
D03*
X242850D02*
D03*
X239504D02*
D03*
X236157D02*
D03*
X232811D02*
D03*
X229465D02*
D03*
X226118D02*
D03*
X222772D02*
D03*
X219425D02*
D03*
X216079D02*
D03*
Y77559D02*
D03*
X219425D02*
D03*
X222772D02*
D03*
X226118D02*
D03*
X229465D02*
D03*
X232811D02*
D03*
X236157D02*
D03*
X239504D02*
D03*
X242850D02*
D03*
X246197D02*
D03*
X249543D02*
D03*
X252890D02*
D03*
X256236D02*
D03*
X259583D02*
D03*
X262929D02*
D03*
D36*
X211945Y22441D02*
D03*
X267063D02*
D03*
X211945Y77559D02*
D03*
X267063D02*
D03*
D46*
X71000Y77000D02*
D03*
D51*
X22500Y60984D02*
D03*
Y95000D02*
D03*
Y39016D02*
D03*
Y5000D02*
D03*
D52*
X6752Y60984D02*
D03*
Y95000D02*
D03*
Y39016D02*
D03*
Y5000D02*
D03*
D58*
X246000Y56496D02*
D03*
D59*
X143672Y57800D02*
X148725D01*
X149437Y57089D02*
X149437D01*
X152200Y54325D01*
X148725Y57800D02*
X149437Y57089D01*
X163000Y32701D02*
Y43500D01*
X152200Y54300D02*
X163000Y43500D01*
X152200Y54300D02*
Y54325D01*
X53000Y16000D02*
X57000D01*
X49000D02*
X53000D01*
X236200Y46800D02*
X236304D01*
X239504Y50000D01*
X163000Y32701D02*
X164819Y30882D01*
Y30764D02*
Y30882D01*
X164882Y30701D02*
X170119D01*
X164819Y30764D02*
X164882Y30701D01*
X142500Y50000D02*
Y56628D01*
X143672Y57800D01*
X178500Y22083D02*
Y22320D01*
X170119Y30701D02*
X178500Y22320D01*
Y22083D02*
X178882Y21701D01*
X179000D01*
X30823Y66181D02*
X36797D01*
X19172Y68543D02*
X28460D01*
X30823Y66181D01*
X36797D02*
X38780Y64198D01*
Y63000D02*
Y64198D01*
X37500Y55000D02*
Y61721D01*
X38780Y63000D01*
X19172Y87441D02*
X24764D01*
X18000Y69715D02*
Y86269D01*
X19172Y87441D01*
X18000Y69715D02*
X19172Y68543D01*
X24764Y90591D02*
X29409D01*
X29500Y90500D01*
X229000Y50004D02*
X233004D01*
X31000Y31457D02*
X37608D01*
X24764D02*
X31000D01*
X38780Y32628D02*
Y37000D01*
X37608Y31457D02*
X38780Y32628D01*
X18500Y29500D02*
X20457Y31457D01*
X24764D01*
X18500Y14500D02*
Y29500D01*
Y14500D02*
X20441Y12559D01*
X24764D01*
X29000Y35959D02*
Y39000D01*
X24945Y34787D02*
X27828D01*
X24764Y34606D02*
X24945Y34787D01*
X27828D02*
X29000Y35959D01*
X24764Y9409D02*
X29909D01*
X30000Y9500D01*
X53000Y23720D02*
Y27000D01*
X55000Y29000D01*
X51000D02*
X55000D01*
X59000D01*
X58000Y23720D02*
Y27892D01*
X59000Y29000D02*
X65697D01*
X58000Y30108D02*
Y34280D01*
X90303Y30055D02*
X92748Y32500D01*
X90303Y29000D02*
Y30055D01*
X92748Y32500D02*
X97500D01*
X124000Y34209D02*
Y40000D01*
Y34209D02*
X124350Y33858D01*
Y83858D02*
X132358D01*
X156000Y79000D02*
Y83508D01*
X155650Y83858D02*
X156000Y83508D01*
X155650Y33858D02*
Y39650D01*
X156000Y40000D01*
X169077Y19598D02*
Y19924D01*
X172827Y18303D02*
X173000Y18130D01*
X169000Y20000D02*
X169077Y19924D01*
X205441Y22441D02*
X211945D01*
X205000Y22000D02*
X205441Y22441D01*
X265672Y18172D02*
X266925Y19425D01*
Y22303D01*
X246004Y56492D02*
X250008D01*
X246004Y49996D02*
X250008D01*
X246004Y43500D02*
X250008D01*
X239508Y56500D02*
Y60504D01*
X239500Y39496D02*
Y43500D01*
X229000Y43508D02*
X233004D01*
X229000Y56500D02*
X233004D01*
X233008Y56496D01*
X180417Y77000D02*
X181500D01*
X179000Y78299D02*
X179118D01*
X180417Y77000D01*
X211756Y77370D02*
X211945Y77559D01*
X207370Y77370D02*
X211756D01*
X205000Y75000D02*
X207370Y77370D01*
D60*
X97950Y56222D02*
Y59250D01*
Y56222D02*
X97950Y56222D01*
X80222Y46050D02*
X86072Y51900D01*
X96072D01*
X97950Y53778D01*
Y56222D01*
X97950Y59250D02*
X97950Y59250D01*
Y61222D01*
X61450Y46050D02*
X80222D01*
X53014Y54486D02*
X61450Y46050D01*
X263004Y66776D02*
X263026Y66754D01*
X267041D02*
X267063Y66732D01*
X263026Y66754D02*
X267041D01*
X46152Y34348D02*
X47500Y33000D01*
X45720Y37000D02*
X46152Y36569D01*
Y34348D02*
Y36569D01*
X248721Y85638D02*
X249152Y86069D01*
X250000Y88757D02*
X250173Y88583D01*
X248721Y85500D02*
Y85638D01*
X250000Y88757D02*
Y89000D01*
X249152Y86069D02*
X249295D01*
X250173Y86948D01*
Y88583D01*
X253865Y83076D02*
Y85415D01*
X253780Y85500D02*
X253865Y85415D01*
Y83076D02*
X256236Y80704D01*
Y77559D02*
Y80704D01*
X263047Y63386D02*
X267063D01*
X54720Y60140D02*
X58814Y64234D01*
X60234D02*
X64500Y68500D01*
X58814Y64234D02*
X60234D01*
X54720Y60140D02*
Y68000D01*
Y57857D02*
Y60140D01*
Y57857D02*
X55279Y57299D01*
X60000D01*
X61500Y51000D02*
X68898D01*
X38014Y54486D02*
X53014D01*
X37500Y55000D02*
X38014Y54486D01*
X95672Y63500D02*
X97950Y61222D01*
X90701Y65882D02*
X93083Y63500D01*
X95672D01*
X90701Y65882D02*
Y66000D01*
X25195Y64963D02*
X27826D01*
X28828Y62672D02*
Y63961D01*
Y62672D02*
X29000Y62500D01*
X27826Y64963D02*
X28828Y63961D01*
X24764Y65394D02*
X25195Y64963D01*
X41113Y74588D02*
X43313D01*
X44828Y72190D02*
Y73074D01*
X41000Y74701D02*
X41113Y74588D01*
X43313D02*
X44828Y73074D01*
Y72190D02*
X45000Y72018D01*
X44457Y81299D02*
X44756Y81000D01*
X41000Y81299D02*
X44457D01*
X44756Y81000D02*
X45000D01*
X41313Y16388D02*
X42723D01*
X45000Y14000D02*
Y14111D01*
X41000Y16701D02*
X41313Y16388D01*
X42723D02*
X45000Y14111D01*
X41313Y23612D02*
X42723D01*
X45000Y25889D01*
Y26000D01*
X41000Y23299D02*
X41313Y23612D01*
X53000Y16000D02*
Y20279D01*
X58000D01*
X58167Y20112D01*
X65530D02*
X65697Y19945D01*
X58167Y20112D02*
X65530D01*
X86427Y81586D02*
X86804Y81210D01*
X83000Y81586D02*
X86427D01*
X86804Y81210D02*
X88208D01*
X89280Y80138D01*
X89299Y80569D02*
Y85000D01*
X54720D02*
Y94721D01*
X55000Y95000D01*
X48000Y85000D02*
X51279D01*
X47000Y68000D02*
X51279D01*
X54720Y68138D02*
X59583Y73000D01*
X60500D01*
X72280Y56000D02*
X72289Y55990D01*
Y51010D02*
Y55990D01*
Y51010D02*
X72299Y51000D01*
X72280Y56000D02*
Y61000D01*
Y61138D01*
X69000Y64417D02*
X72280Y61138D01*
X69000Y64417D02*
Y64500D01*
X65000Y54000D02*
Y57279D01*
X75701Y50882D02*
X77583Y49000D01*
X79000D01*
X75701Y50882D02*
Y51000D01*
X77583Y54000D02*
X79000D01*
X75721Y55862D02*
Y56000D01*
Y55862D02*
X77583Y54000D01*
X76152Y60431D02*
X77569D01*
X79000Y59000D01*
X75721Y60862D02*
X76152Y60431D01*
X75721Y60862D02*
Y61000D01*
X90701Y56000D02*
X93757D01*
X94757Y55000D01*
X95000D01*
X94000Y61000D02*
X95000Y60000D01*
X90701Y61000D02*
X94000D01*
X95063Y85063D02*
X97000Y87000D01*
X92701Y85000D02*
X92764Y85063D01*
X95063D01*
X92721Y80000D02*
X96000D01*
X97000Y81000D01*
X161500Y63613D02*
X162829Y64942D01*
X164662D01*
X161500Y63500D02*
Y63613D01*
X164662Y64942D02*
X165000Y65280D01*
X164862Y18280D02*
X165000D01*
X162000Y15417D02*
X164862Y18280D01*
X162000Y14000D02*
Y15417D01*
X170372Y18303D02*
X172827D01*
X169077Y19598D02*
X170372Y18303D01*
X256125Y5000D02*
X262280Y11154D01*
Y14500D01*
X255000Y5000D02*
X256125D01*
X265721Y5720D02*
Y14500D01*
X265000Y5000D02*
X265721Y5720D01*
X264500Y18000D02*
X264672Y18172D01*
X265672D01*
X266925Y22303D02*
X267063Y22441D01*
X253780Y85500D02*
Y88779D01*
X254000Y89000D01*
X245280Y88279D02*
X246000Y89000D01*
X245280Y85500D02*
Y88279D01*
X255000Y95000D02*
X255500D01*
X262280Y88221D01*
Y85500D02*
Y88221D01*
X265000Y89454D02*
X265385Y89069D01*
Y85835D02*
X265721Y85500D01*
X265000Y89454D02*
Y95000D01*
X265385Y85835D02*
Y89069D01*
X262500Y82000D02*
X265500D01*
X259500D02*
X262500D01*
X262929Y81571D01*
Y77559D02*
Y81571D01*
X265500Y82000D02*
X266995Y80505D01*
Y77627D02*
Y80505D01*
Y77627D02*
X267063Y77559D01*
X259500Y82000D02*
Y83083D01*
X257221Y85362D02*
Y85500D01*
Y85362D02*
X259500Y83083D01*
X259583Y73543D02*
Y77559D01*
X263047Y73425D02*
X267063D01*
X263047Y70079D02*
X267063D01*
X263047Y60039D02*
X267063D01*
X263047Y56693D02*
X267063D01*
X263047Y53347D02*
X267063D01*
X263047Y50000D02*
X267063D01*
X263047Y46654D02*
X267063D01*
X263047Y43307D02*
X267063D01*
X263047Y39961D02*
X267063D01*
X263047Y36614D02*
X267063D01*
X263047Y33268D02*
X267063D01*
X263047Y29921D02*
X267063D01*
X263047Y26575D02*
X267063D01*
X256236Y22441D02*
Y26457D01*
X252890Y22441D02*
Y26457D01*
D61*
X79717Y80983D02*
Y81000D01*
X80303Y81586D02*
X83000D01*
X79671Y80937D02*
X79717Y80983D01*
Y81000D02*
X80303Y81586D01*
X78541Y80937D02*
X79671D01*
X71000Y84541D02*
Y88000D01*
X70000Y89000D02*
X71000Y88000D01*
X60563Y73063D02*
X63459D01*
X60500Y73000D02*
X60563Y73063D01*
X69000Y64500D02*
X69032Y64531D01*
Y69459D01*
X71023Y66977D02*
Y69436D01*
X71000Y69459D02*
X71023Y69436D01*
Y66977D02*
X73000Y65000D01*
D62*
X45610Y62890D02*
X45720Y63000D01*
X45610Y59610D02*
Y62890D01*
X45500Y59500D02*
X45610Y59610D01*
X58000Y37721D02*
X58167Y37888D01*
X65530D01*
X65697Y38055D01*
X45583Y50000D02*
X57862Y37721D01*
X58000D01*
X37500Y50000D02*
X45583D01*
X38780Y63000D02*
X42279D01*
X35280D02*
X38780D01*
X32721Y59045D02*
Y63000D01*
X32000Y58325D02*
X32721Y59045D01*
X32000Y58000D02*
Y58325D01*
X33992Y82279D02*
X36500Y84787D01*
X33500Y82279D02*
X33992D01*
X36500Y84787D02*
Y86000D01*
X35721Y71720D02*
X36770Y72770D01*
X33500Y71720D02*
X35721D01*
X36770Y72770D02*
Y73770D01*
X37000Y74000D01*
X35280Y37000D02*
X38780D01*
X42279D01*
Y40220D01*
X37500Y45000D02*
X42279Y40220D01*
X32721Y37000D02*
Y40955D01*
X32000Y41675D02*
X32721Y40955D01*
X32000Y41675D02*
Y42000D01*
X33540Y24519D02*
X36481D01*
X33500Y24559D02*
X33540Y24519D01*
X36481D02*
X37000Y24000D01*
X33500Y15441D02*
X36441D01*
X37000Y16000D01*
D63*
X24764Y75039D02*
X26437D01*
X21614D02*
X24764D01*
X28249Y74279D02*
X33500D01*
X27579Y74949D02*
X28249Y74279D01*
X26527Y74949D02*
X27579D01*
X26437Y75039D02*
X26527Y74949D01*
X28100Y80945D02*
X29255D01*
X24764D02*
X28100D01*
X28400Y77361D02*
Y80645D01*
X28100Y80945D02*
X28400Y80645D01*
X24764Y77008D02*
X28047D01*
X28400Y77361D01*
X29255Y80945D02*
X30479Y79720D01*
X33500D01*
X33520Y78480D02*
Y79701D01*
X33500Y79720D02*
X33520Y79701D01*
X21261Y75393D02*
Y78747D01*
Y75393D02*
X21614Y75039D01*
X21261Y78747D02*
X21614Y79100D01*
X24640D01*
X24764Y78976D01*
X31500Y77000D02*
X31844Y76656D01*
X32344D02*
X33480Y75520D01*
Y74299D02*
Y75520D01*
X31844Y76656D02*
X32344D01*
X35156Y77344D02*
X35500Y77000D01*
X34656Y77344D02*
X35156D01*
X33520Y78480D02*
X34656Y77344D01*
X48000Y74000D02*
X48500Y73500D01*
X51299D01*
X48500Y78500D02*
X51299D01*
X48000Y78000D02*
X48500Y78500D01*
X62188Y75032D02*
X63459D01*
X61905Y75314D02*
X62188Y75032D01*
X59348Y75314D02*
X61905D01*
X59332Y75299D02*
X59348Y75314D01*
X55816Y75299D02*
X59332D01*
X55462Y74261D02*
Y74945D01*
X54701Y73500D02*
X55462Y74261D01*
Y74945D02*
X55816Y75299D01*
X55462Y77055D02*
Y77738D01*
X55816Y76701D02*
X58751D01*
X55462Y77055D02*
X55816Y76701D01*
X58767Y76717D02*
X61905D01*
X58751Y76701D02*
X58767Y76717D01*
X62188Y77000D02*
X63459D01*
X61905Y76717D02*
X62188Y77000D01*
X54701Y78500D02*
X55462Y77738D01*
X28358Y19055D02*
X31953D01*
X24764D02*
X28358D01*
Y22626D01*
X27992Y22992D02*
X28358Y22626D01*
X24764Y22992D02*
X27992D01*
X31347Y22000D02*
X33500D01*
X24764Y24961D02*
X28387D01*
X31347Y22000D01*
X33008Y18000D02*
X33500D01*
X31953Y19055D02*
X33008Y18000D01*
X21814Y24961D02*
X24764D01*
X21461Y21353D02*
Y24607D01*
X21814Y21000D02*
X24740D01*
X21461Y21353D02*
X21814Y21000D01*
X21461Y24607D02*
X21814Y24961D01*
X24740Y21000D02*
X24764Y21024D01*
X43701Y19298D02*
X45000Y18000D01*
X34675Y19298D02*
X43701D01*
Y20701D02*
X45000Y22000D01*
X34675Y20701D02*
X43701D01*
X33934Y18000D02*
X34321Y18387D01*
Y18945D02*
X34675Y19298D01*
X33500Y18000D02*
X33934D01*
X34321Y18387D02*
Y18945D01*
X33500Y22000D02*
X33934D01*
X34321Y21612D01*
Y21055D02*
X34675Y20701D01*
X34321Y21055D02*
Y21612D01*
X189300Y44800D02*
X191898D01*
X187500Y46600D02*
X189300Y44800D01*
X187500Y50000D02*
X189300Y51800D01*
X191898D01*
X68945Y5000D02*
X69298Y5353D01*
X65000Y5000D02*
X68945D01*
X76856Y16544D02*
Y19748D01*
X69298Y5353D02*
Y8987D01*
X78259Y19292D02*
X79314Y20347D01*
X70701Y8406D02*
X78259Y15963D01*
X70701Y5353D02*
Y8406D01*
X69298Y8987D02*
X76856Y16544D01*
X71055Y5000D02*
X75000D01*
X70701Y5353D02*
X71055Y5000D01*
X75800Y20804D02*
X76856Y19748D01*
X75800Y20804D02*
Y21000D01*
X79314Y20347D02*
Y20543D01*
X78259Y15963D02*
Y19292D01*
X198701Y44800D02*
X202500D01*
X198701Y51800D02*
X202500D01*
X204136Y49028D02*
X210318D01*
X195299Y49355D02*
Y51800D01*
X210672Y49382D02*
Y49514D01*
X195299Y49355D02*
X195652Y49002D01*
X211157Y50000D02*
X211945D01*
X210318Y49028D02*
X210672Y49382D01*
Y49514D02*
X211157Y50000D01*
X204110Y49002D02*
X204136Y49028D01*
X195652Y49002D02*
X204110D01*
X195299Y47245D02*
X195652Y47598D01*
X195299Y44800D02*
Y47245D01*
X204718Y47625D02*
X210318D01*
X210672Y47272D01*
X195652Y47598D02*
X204691D01*
X210672Y47139D02*
Y47272D01*
Y47139D02*
X211157Y46654D01*
X204691Y47598D02*
X204718Y47625D01*
X211157Y46654D02*
X211945D01*
D64*
X265000Y5000D02*
D03*
Y95000D02*
D03*
D65*
X255000Y5000D02*
D03*
X245000D02*
D03*
X235000D02*
D03*
X225000D02*
D03*
X215000D02*
D03*
X205000D02*
D03*
X195000D02*
D03*
X185000D02*
D03*
X175000D02*
D03*
X165000D02*
D03*
X155000D02*
D03*
X145000D02*
D03*
X135000D02*
D03*
X125000D02*
D03*
X115000D02*
D03*
X105000D02*
D03*
X95000D02*
D03*
X85000D02*
D03*
X75000D02*
D03*
X65000D02*
D03*
X55000D02*
D03*
X45000D02*
D03*
X35000D02*
D03*
X255000Y95000D02*
D03*
X245000D02*
D03*
X235000D02*
D03*
X225000D02*
D03*
X215000D02*
D03*
X205000D02*
D03*
X195000D02*
D03*
X185000D02*
D03*
X175000D02*
D03*
X165000D02*
D03*
X155000D02*
D03*
X145000D02*
D03*
X135000D02*
D03*
X125000D02*
D03*
X115000D02*
D03*
X105000D02*
D03*
X95000D02*
D03*
X85000D02*
D03*
X75000D02*
D03*
X65000D02*
D03*
X55000D02*
D03*
X45000D02*
D03*
X35000D02*
D03*
D66*
X37500Y50000D02*
D03*
Y45000D02*
D03*
X142500Y50000D02*
D03*
D67*
X37500Y55000D02*
D03*
D68*
X137500Y50000D02*
D03*
D69*
X186500Y63000D02*
D03*
X47500Y33000D02*
D03*
X75000Y89000D02*
D03*
X83000Y84500D02*
D03*
X64500Y68500D02*
D03*
X45500Y59500D02*
D03*
X61500Y51000D02*
D03*
X29500Y90500D02*
D03*
X32000Y58000D02*
D03*
X29000Y62500D02*
D03*
X45000Y72018D02*
D03*
Y81000D02*
D03*
X36500Y86000D02*
D03*
X37000Y74000D02*
D03*
X31500Y77000D02*
D03*
X35500D02*
D03*
X48000Y74000D02*
D03*
Y78000D02*
D03*
X184000Y51500D02*
D03*
Y45000D02*
D03*
X45000Y22000D02*
D03*
Y18000D02*
D03*
X187500Y46600D02*
D03*
Y50000D02*
D03*
X206000Y45000D02*
D03*
Y51500D02*
D03*
X81000Y17500D02*
D03*
X74500Y18000D02*
D03*
X79314Y20543D02*
D03*
X75800Y21000D02*
D03*
X202500Y44800D02*
D03*
Y51800D02*
D03*
X32000Y42000D02*
D03*
X29000Y39000D02*
D03*
X45000Y26000D02*
D03*
Y14000D02*
D03*
X37000Y24000D02*
D03*
Y16000D02*
D03*
X30000Y9500D02*
D03*
X49000Y16000D02*
D03*
X53000D02*
D03*
X57000D02*
D03*
X51000Y29000D02*
D03*
X55000D02*
D03*
X59000D02*
D03*
X117500Y47500D02*
D03*
X112500D02*
D03*
X107500D02*
D03*
X102500D02*
D03*
X97500D02*
D03*
Y40000D02*
D03*
X102500D02*
D03*
X107500D02*
D03*
X112500D02*
D03*
X117500D02*
D03*
Y32500D02*
D03*
X112500D02*
D03*
X107500D02*
D03*
X102500D02*
D03*
X97500D02*
D03*
X124000Y40000D02*
D03*
X149000Y53000D02*
D03*
X165000Y61000D02*
D03*
X73500Y75500D02*
D03*
X68500D02*
D03*
X73000Y79000D02*
D03*
X68500D02*
D03*
X70000Y89000D02*
D03*
X48000Y85000D02*
D03*
X47000Y68000D02*
D03*
X65000Y54000D02*
D03*
X79000Y49000D02*
D03*
Y54000D02*
D03*
Y59000D02*
D03*
X73000Y65000D02*
D03*
X95000Y55000D02*
D03*
Y60000D02*
D03*
X158000Y61000D02*
D03*
X151000D02*
D03*
X88000Y72000D02*
D03*
X97000Y87000D02*
D03*
Y81000D02*
D03*
X132358Y83858D02*
D03*
X156000Y79000D02*
D03*
X161500Y63500D02*
D03*
X172000Y61000D02*
D03*
X188000Y71000D02*
D03*
X179000Y63000D02*
D03*
X196000D02*
D03*
X192000Y67000D02*
D03*
X195000Y73000D02*
D03*
X166000Y79000D02*
D03*
X177000Y38000D02*
D03*
X200500D02*
D03*
X198000Y41000D02*
D03*
X184000Y38000D02*
D03*
X191000Y30000D02*
D03*
X198000D02*
D03*
X156000Y40000D02*
D03*
X162000Y14000D02*
D03*
X169000Y20000D02*
D03*
X205000Y22000D02*
D03*
X264500Y18000D02*
D03*
X254000Y89000D02*
D03*
X250000D02*
D03*
X246000D02*
D03*
X259500Y82000D02*
D03*
X242800Y46800D02*
D03*
X236200D02*
D03*
X242800Y53200D02*
D03*
X236200D02*
D03*
X250008Y56492D02*
D03*
Y49996D02*
D03*
Y43500D02*
D03*
X239508Y60504D02*
D03*
X239500Y39496D02*
D03*
X229000Y43508D02*
D03*
Y50004D02*
D03*
Y56500D02*
D03*
X259539Y73500D02*
D03*
X263004Y73469D02*
D03*
Y70122D02*
D03*
Y66776D02*
D03*
Y63429D02*
D03*
Y60083D02*
D03*
Y56736D02*
D03*
Y53390D02*
D03*
Y50043D02*
D03*
Y46697D02*
D03*
Y43350D02*
D03*
Y40004D02*
D03*
Y36658D02*
D03*
Y33311D02*
D03*
Y29965D02*
D03*
Y26618D02*
D03*
X181500Y77000D02*
D03*
X205000Y75000D02*
D03*
X246193Y67500D02*
D03*
X256279Y26500D02*
D03*
X252933D02*
D03*
X216035Y73500D02*
D03*
X216083Y32500D02*
D03*
X246240Y26500D02*
D03*
X249547Y32500D02*
D03*
X239547Y26500D02*
D03*
X242854Y32500D02*
D03*
X232854Y26500D02*
D03*
X236161Y32500D02*
D03*
X226161Y26500D02*
D03*
X229468Y32500D02*
D03*
X219468Y26500D02*
D03*
X222776Y32500D02*
D03*
X222728Y73500D02*
D03*
X219421Y67500D02*
D03*
X229421Y73500D02*
D03*
X226114Y67500D02*
D03*
X236114Y73500D02*
D03*
X232807Y67500D02*
D03*
X239500D02*
D03*
X242807Y73500D02*
D03*
X249500D02*
D03*
M02*
