G04*
G04 #@! TF.GenerationSoftware,Altium Limited,Altium Designer,24.5.2 (23)*
G04*
G04 Layer_Color=32896*
%FSLAX25Y25*%
%MOIN*%
G70*
G04*
G04 #@! TF.SameCoordinates,24FF50D2-DFE2-4597-A0F4-7CAA859AE4CF*
G04*
G04*
G04 #@! TF.FilePolarity,Positive*
G04*
G01*
G75*
%ADD11C,0.00600*%
%ADD62C,0.01200*%
%ADD78C,0.01000*%
D11*
X267000Y72201D02*
X265001Y74200D01*
X263001Y72201D01*
X265001Y70201D02*
Y67536D01*
Y66203D02*
Y63537D01*
Y62204D02*
Y59538D01*
X267000Y58205D02*
X263001D01*
Y56206D01*
X263668Y55539D01*
X265001D01*
X265667Y56206D01*
Y58205D01*
X263001Y54206D02*
Y52874D01*
Y53540D01*
X267000D01*
Y54206D01*
Y52874D01*
Y50874D02*
X263001D01*
X267000Y48208D01*
X263001D01*
X267000Y46876D02*
Y45543D01*
Y46209D01*
X263001D01*
X263668Y46876D01*
X265001Y43543D02*
Y40877D01*
Y39544D02*
Y36879D01*
Y35546D02*
Y32880D01*
X267000Y31547D02*
X265001Y29548D01*
X263001Y31547D01*
X185234Y35765D02*
X187900D01*
Y31766D01*
X185234D01*
X187900Y33766D02*
X186567D01*
X181236Y35099D02*
X181902Y35765D01*
X183235D01*
X183901Y35099D01*
Y34432D01*
X183235Y33766D01*
X181902D01*
X181236Y33099D01*
Y32433D01*
X181902Y31766D01*
X183235D01*
X183901Y32433D01*
X179903Y31766D02*
Y35765D01*
X177903D01*
X177237Y35099D01*
Y33766D01*
X177903Y33099D01*
X179903D01*
X175904Y35099D02*
X175237Y35765D01*
X173905D01*
X173238Y35099D01*
Y34432D01*
X173905Y33766D01*
X174571D01*
X173905D01*
X173238Y33099D01*
Y32433D01*
X173905Y31766D01*
X175237D01*
X175904Y32433D01*
X169239Y31766D02*
X171905D01*
X169239Y34432D01*
Y35099D01*
X169906Y35765D01*
X171239D01*
X171905Y35099D01*
X167906Y31100D02*
X165241D01*
X163908Y35765D02*
Y31766D01*
X162575Y33099D01*
X161242Y31766D01*
Y35765D01*
X159909D02*
X158576D01*
X159243D01*
Y31766D01*
X159909D01*
X158576D01*
X156577Y35765D02*
X153911D01*
X155244D01*
Y31766D01*
X152578Y35765D02*
Y31766D01*
Y33766D01*
X149912D01*
Y35765D01*
Y31766D01*
X148579Y33766D02*
X145914D01*
X144581Y35765D02*
Y32433D01*
X143914Y31766D01*
X142581D01*
X141915Y32433D01*
Y35765D01*
X137916Y35099D02*
X138583Y35765D01*
X139916D01*
X140582Y35099D01*
Y34432D01*
X139916Y33766D01*
X138583D01*
X137916Y33099D01*
Y32433D01*
X138583Y31766D01*
X139916D01*
X140582Y32433D01*
X136583Y35765D02*
Y31766D01*
X134584D01*
X133917Y32433D01*
Y33099D01*
X134584Y33766D01*
X136583D01*
X134584D01*
X133917Y34432D01*
Y35099D01*
X134584Y35765D01*
X136583D01*
X132585Y31100D02*
X129919D01*
X125920Y35099D02*
X126586Y35765D01*
X127919D01*
X128586Y35099D01*
Y32433D01*
X127919Y31766D01*
X126586D01*
X125920Y32433D01*
X183734Y42932D02*
X184401Y43599D01*
X185733D01*
X186400Y42932D01*
Y40266D01*
X185733Y39600D01*
X184401D01*
X183734Y40266D01*
X181068Y39600D02*
X182401Y40933D01*
Y42266D01*
X181068Y43599D01*
X176403Y39600D02*
X179069D01*
X176403Y42266D01*
Y42932D01*
X177070Y43599D01*
X178403D01*
X179069Y42932D01*
X175070D02*
X174404Y43599D01*
X173071D01*
X172405Y42932D01*
Y40266D01*
X173071Y39600D01*
X174404D01*
X175070Y40266D01*
Y42932D01*
X168406Y39600D02*
X171072D01*
X168406Y42266D01*
Y42932D01*
X169072Y43599D01*
X170405D01*
X171072Y42932D01*
X164407Y43599D02*
X167073D01*
Y41599D01*
X165740Y42266D01*
X165074D01*
X164407Y41599D01*
Y40266D01*
X165074Y39600D01*
X166406D01*
X167073Y40266D01*
X163074Y39600D02*
X161741Y40933D01*
Y42266D01*
X163074Y43599D01*
X155743Y39600D02*
Y42266D01*
X154410Y43599D01*
X153077Y42266D01*
Y39600D01*
Y41599D01*
X155743D01*
X151744Y39600D02*
Y43599D01*
X149079Y39600D01*
Y43599D01*
X147746D02*
X145080D01*
X146413D01*
Y39600D01*
X143747Y43599D02*
Y39600D01*
Y41599D01*
X141081D01*
Y43599D01*
Y39600D01*
X137749Y43599D02*
X139082D01*
X139748Y42932D01*
Y40266D01*
X139082Y39600D01*
X137749D01*
X137083Y40266D01*
Y42932D01*
X137749Y43599D01*
X135750Y39600D02*
Y43599D01*
X133084Y39600D01*
Y43599D01*
X131751D02*
Y42932D01*
X130418Y41599D01*
X129085Y42932D01*
Y43599D01*
X130418Y41599D02*
Y39600D01*
X33668Y23834D02*
X33001Y24501D01*
Y25834D01*
X33668Y26500D01*
X36334D01*
X37000Y25834D01*
Y24501D01*
X36334Y23834D01*
X35001D01*
Y25167D01*
X37000Y22501D02*
X33001D01*
X37000Y19836D01*
X33001D01*
Y18503D02*
X37000D01*
Y16503D01*
X36334Y15837D01*
X33668D01*
X33001Y16503D01*
Y18503D01*
X43001Y26500D02*
Y25167D01*
Y25834D01*
X47000D01*
Y26500D01*
Y25167D01*
X43001Y21168D02*
Y22501D01*
X43668Y23168D01*
X46334D01*
X47000Y22501D01*
Y21168D01*
X46334Y20502D01*
X43668D01*
X43001Y21168D01*
X47000Y17170D02*
X43001D01*
X45001Y19169D01*
Y16503D01*
X43001Y15170D02*
Y12505D01*
X43668D01*
X46334Y15170D01*
X47000D01*
X53001Y26500D02*
Y25167D01*
Y25834D01*
X57000D01*
Y26500D01*
Y25167D01*
X53001Y21168D02*
Y22501D01*
X53668Y23168D01*
X56334D01*
X57000Y22501D01*
Y21168D01*
X56334Y20502D01*
X53668D01*
X53001Y21168D01*
X57000Y17170D02*
X53001D01*
X55001Y19169D01*
Y16503D01*
X53668Y15170D02*
X53001Y14504D01*
Y13171D01*
X53668Y12505D01*
X54334D01*
X55001Y13171D01*
X55667Y12505D01*
X56334D01*
X57000Y13171D01*
Y14504D01*
X56334Y15170D01*
X55667D01*
X55001Y14504D01*
X54334Y15170D01*
X53668D01*
X55001Y14504D02*
Y13171D01*
X63001Y26500D02*
X66334D01*
X67000Y25834D01*
Y24501D01*
X66334Y23834D01*
X63001D01*
X63668Y19836D02*
X63001Y20502D01*
Y21835D01*
X63668Y22501D01*
X64334D01*
X65001Y21835D01*
Y20502D01*
X65667Y19836D01*
X66334D01*
X67000Y20502D01*
Y21835D01*
X66334Y22501D01*
X63001Y18503D02*
X67000D01*
Y16503D01*
X66334Y15837D01*
X65667D01*
X65001Y16503D01*
Y18503D01*
Y16503D01*
X64334Y15837D01*
X63668D01*
X63001Y16503D01*
Y18503D01*
X65001Y14504D02*
Y11838D01*
X83001Y26500D02*
Y25167D01*
Y25834D01*
X87000D01*
Y26500D01*
Y25167D01*
X83001Y21168D02*
Y22501D01*
X83668Y23168D01*
X86334D01*
X87000Y22501D01*
Y21168D01*
X86334Y20502D01*
X83668D01*
X83001Y21168D01*
X87000Y16503D02*
Y19169D01*
X84334Y16503D01*
X83668D01*
X83001Y17170D01*
Y18503D01*
X83668Y19169D01*
X87000Y15170D02*
Y13837D01*
Y14504D01*
X83001D01*
X83668Y15170D01*
X93001Y26500D02*
Y25167D01*
Y25834D01*
X97000D01*
Y26500D01*
Y25167D01*
X93001Y21168D02*
Y22501D01*
X93668Y23168D01*
X96334D01*
X97000Y22501D01*
Y21168D01*
X96334Y20502D01*
X93668D01*
X93001Y21168D01*
X97000Y16503D02*
Y19169D01*
X94334Y16503D01*
X93668D01*
X93001Y17170D01*
Y18503D01*
X93668Y19169D01*
X93001Y12505D02*
X93668Y13837D01*
X95001Y15170D01*
X96334D01*
X97000Y14504D01*
Y13171D01*
X96334Y12505D01*
X95667D01*
X95001Y13171D01*
Y15170D01*
X103001Y26500D02*
Y25167D01*
Y25834D01*
X107000D01*
Y26500D01*
Y25167D01*
X103001Y21168D02*
Y22501D01*
X103668Y23168D01*
X106333D01*
X107000Y22501D01*
Y21168D01*
X106333Y20502D01*
X103668D01*
X103001Y21168D01*
X103668Y19169D02*
X103001Y18503D01*
Y17170D01*
X103668Y16503D01*
X104334D01*
X105001Y17170D01*
Y17836D01*
Y17170D01*
X105667Y16503D01*
X106333D01*
X107000Y17170D01*
Y18503D01*
X106333Y19169D01*
X103668Y15170D02*
X103001Y14504D01*
Y13171D01*
X103668Y12505D01*
X104334D01*
X105001Y13171D01*
Y13837D01*
Y13171D01*
X105667Y12505D01*
X106333D01*
X107000Y13171D01*
Y14504D01*
X106333Y15170D01*
X113001Y26500D02*
Y25167D01*
Y25834D01*
X117000D01*
Y26500D01*
Y25167D01*
X113001Y21168D02*
Y22501D01*
X113668Y23168D01*
X116333D01*
X117000Y22501D01*
Y21168D01*
X116333Y20502D01*
X113668D01*
X113001Y21168D01*
X113668Y19169D02*
X113001Y18503D01*
Y17170D01*
X113668Y16503D01*
X114334D01*
X115001Y17170D01*
Y17836D01*
Y17170D01*
X115667Y16503D01*
X116333D01*
X117000Y17170D01*
Y18503D01*
X116333Y19169D01*
X117000Y13171D02*
X113001D01*
X115001Y15170D01*
Y12505D01*
X73001Y26500D02*
X76334D01*
X77000Y25834D01*
Y24501D01*
X76334Y23834D01*
X73001D01*
X73668Y19836D02*
X73001Y20502D01*
Y21835D01*
X73668Y22501D01*
X74334D01*
X75001Y21835D01*
Y20502D01*
X75667Y19836D01*
X76334D01*
X77000Y20502D01*
Y21835D01*
X76334Y22501D01*
X73001Y18503D02*
X77000D01*
Y16503D01*
X76334Y15837D01*
X75667D01*
X75001Y16503D01*
Y18503D01*
Y16503D01*
X74334Y15837D01*
X73668D01*
X73001Y16503D01*
Y18503D01*
X75001Y14504D02*
Y11838D01*
X73668Y13171D02*
X76334D01*
X133001Y26500D02*
Y25167D01*
Y25834D01*
X137000D01*
Y26500D01*
Y25167D01*
X133001Y21168D02*
Y22501D01*
X133668Y23168D01*
X136334D01*
X137000Y22501D01*
Y21168D01*
X136334Y20502D01*
X133668D01*
X133001Y21168D01*
X133668Y19169D02*
X133001Y18503D01*
Y17170D01*
X133668Y16503D01*
X134334D01*
X135001Y17170D01*
Y17836D01*
Y17170D01*
X135667Y16503D01*
X136334D01*
X137000Y17170D01*
Y18503D01*
X136334Y19169D01*
X133001Y12505D02*
X133668Y13837D01*
X135001Y15170D01*
X136334D01*
X137000Y14504D01*
Y13171D01*
X136334Y12505D01*
X135667D01*
X135001Y13171D01*
Y15170D01*
X143001Y26500D02*
Y25167D01*
Y25834D01*
X147000D01*
Y26500D01*
Y25167D01*
X143001Y21168D02*
Y22501D01*
X143668Y23168D01*
X146334D01*
X147000Y22501D01*
Y21168D01*
X146334Y20502D01*
X143668D01*
X143001Y21168D01*
X143668Y19169D02*
X143001Y18503D01*
Y17170D01*
X143668Y16503D01*
X144334D01*
X145001Y17170D01*
Y17836D01*
Y17170D01*
X145667Y16503D01*
X146334D01*
X147000Y17170D01*
Y18503D01*
X146334Y19169D01*
X143001Y15170D02*
Y12505D01*
X143668D01*
X146334Y15170D01*
X147000D01*
X153001Y26500D02*
Y25167D01*
Y25834D01*
X157000D01*
Y26500D01*
Y25167D01*
X153001Y21168D02*
Y22501D01*
X153668Y23168D01*
X156333D01*
X157000Y22501D01*
Y21168D01*
X156333Y20502D01*
X153668D01*
X153001Y21168D01*
X153668Y19169D02*
X153001Y18503D01*
Y17170D01*
X153668Y16503D01*
X154334D01*
X155001Y17170D01*
Y17836D01*
Y17170D01*
X155667Y16503D01*
X156333D01*
X157000Y17170D01*
Y18503D01*
X156333Y19169D01*
X153668Y15170D02*
X153001Y14504D01*
Y13171D01*
X153668Y12505D01*
X154334D01*
X155001Y13171D01*
X155667Y12505D01*
X156333D01*
X157000Y13171D01*
Y14504D01*
X156333Y15170D01*
X155667D01*
X155001Y14504D01*
X154334Y15170D01*
X153668D01*
X155001Y14504D02*
Y13171D01*
X163001Y26500D02*
Y25167D01*
Y25834D01*
X167000D01*
Y26500D01*
Y25167D01*
X163001Y21168D02*
Y22501D01*
X163668Y23168D01*
X166333D01*
X167000Y22501D01*
Y21168D01*
X166333Y20502D01*
X163668D01*
X163001Y21168D01*
X163668Y19169D02*
X163001Y18503D01*
Y17170D01*
X163668Y16503D01*
X164334D01*
X165001Y17170D01*
Y17836D01*
Y17170D01*
X165667Y16503D01*
X166333D01*
X167000Y17170D01*
Y18503D01*
X166333Y19169D01*
Y15170D02*
X167000Y14504D01*
Y13171D01*
X166333Y12505D01*
X163668D01*
X163001Y13171D01*
Y14504D01*
X163668Y15170D01*
X164334D01*
X165001Y14504D01*
Y12505D01*
X123001Y26500D02*
Y25167D01*
Y25834D01*
X127000D01*
Y26500D01*
Y25167D01*
X123001Y21168D02*
Y22501D01*
X123668Y23168D01*
X126333D01*
X127000Y22501D01*
Y21168D01*
X126333Y20502D01*
X123668D01*
X123001Y21168D01*
X123668Y19169D02*
X123001Y18503D01*
Y17170D01*
X123668Y16503D01*
X124334D01*
X125001Y17170D01*
Y17836D01*
Y17170D01*
X125667Y16503D01*
X126333D01*
X127000Y17170D01*
Y18503D01*
X126333Y19169D01*
X123001Y12505D02*
Y15170D01*
X125001D01*
X124334Y13837D01*
Y13171D01*
X125001Y12505D01*
X126333D01*
X127000Y13171D01*
Y14504D01*
X126333Y15170D01*
X183001Y26500D02*
Y25167D01*
Y25834D01*
X187000D01*
Y26500D01*
Y25167D01*
X183001Y21168D02*
Y22501D01*
X183668Y23168D01*
X186334D01*
X187000Y22501D01*
Y21168D01*
X186334Y20502D01*
X183668D01*
X183001Y21168D01*
X187000Y17170D02*
X183001D01*
X185001Y19169D01*
Y16503D01*
X187000Y15170D02*
Y13837D01*
Y14504D01*
X183001D01*
X183668Y15170D01*
X193001Y26500D02*
Y25167D01*
Y25834D01*
X197000D01*
Y26500D01*
Y25167D01*
X193001Y21168D02*
Y22501D01*
X193668Y23168D01*
X196334D01*
X197000Y22501D01*
Y21168D01*
X196334Y20502D01*
X193668D01*
X193001Y21168D01*
X197000Y17170D02*
X193001D01*
X195001Y19169D01*
Y16503D01*
X197000Y12505D02*
Y15170D01*
X194334Y12505D01*
X193668D01*
X193001Y13171D01*
Y14504D01*
X193668Y15170D01*
X203001Y26500D02*
Y23834D01*
Y25167D01*
X207000D01*
X203001Y22501D02*
X207000Y19836D01*
X203001D02*
X207000Y22501D01*
X203001Y18503D02*
X207000D01*
Y16503D01*
X206334Y15837D01*
X203668D01*
X203001Y16503D01*
Y18503D01*
X217000Y26500D02*
X213001D01*
Y24501D01*
X213668Y23834D01*
X215001D01*
X215667Y24501D01*
Y26500D01*
Y25167D02*
X217000Y23834D01*
X213001Y22501D02*
X217000Y19836D01*
X213001D02*
X217000Y22501D01*
X213001Y18503D02*
X217000D01*
Y16503D01*
X216334Y15837D01*
X213668D01*
X213001Y16503D01*
Y18503D01*
X173001Y26500D02*
Y25167D01*
Y25834D01*
X177000D01*
Y26500D01*
Y25167D01*
X173001Y21168D02*
Y22501D01*
X173668Y23168D01*
X176333D01*
X177000Y22501D01*
Y21168D01*
X176333Y20502D01*
X173668D01*
X173001Y21168D01*
X177000Y17170D02*
X173001D01*
X175001Y19169D01*
Y16503D01*
X173668Y15170D02*
X173001Y14504D01*
Y13171D01*
X173668Y12505D01*
X176333D01*
X177000Y13171D01*
Y14504D01*
X176333Y15170D01*
X173668D01*
X223001Y26500D02*
Y25167D01*
Y25834D01*
X227000D01*
Y26500D01*
Y25167D01*
X223001Y21168D02*
Y22501D01*
X223668Y23168D01*
X226334D01*
X227000Y22501D01*
Y21168D01*
X226334Y20502D01*
X223668D01*
X223001Y21168D01*
X227000Y17170D02*
X223001D01*
X225001Y19169D01*
Y16503D01*
X223001Y12505D02*
Y15170D01*
X225001D01*
X224334Y13837D01*
Y13171D01*
X225001Y12505D01*
X226334D01*
X227000Y13171D01*
Y14504D01*
X226334Y15170D01*
X263668Y26500D02*
X263001Y25834D01*
Y24501D01*
X263668Y23834D01*
X264334D01*
X265001Y24501D01*
Y25167D01*
Y24501D01*
X265667Y23834D01*
X266334D01*
X267000Y24501D01*
Y25834D01*
X266334Y26500D01*
X263001Y22501D02*
X265667D01*
X267000Y21168D01*
X265667Y19836D01*
X263001D01*
X263668Y18503D02*
X263001Y17836D01*
Y16503D01*
X263668Y15837D01*
X264334D01*
X265001Y16503D01*
Y17170D01*
Y16503D01*
X265667Y15837D01*
X266334D01*
X267000Y16503D01*
Y17836D01*
X266334Y18503D01*
X253668Y23834D02*
X253001Y24501D01*
Y25834D01*
X253668Y26500D01*
X256334D01*
X257000Y25834D01*
Y24501D01*
X256334Y23834D01*
X255001D01*
Y25167D01*
X257000Y22501D02*
X253001D01*
X257000Y19836D01*
X253001D01*
Y18503D02*
X257000D01*
Y16503D01*
X256334Y15837D01*
X253668D01*
X253001Y16503D01*
Y18503D01*
X243001Y23834D02*
Y26500D01*
X247000D01*
Y23834D01*
X245001Y26500D02*
Y25167D01*
X247000Y22501D02*
X243001D01*
X247000Y19836D01*
X243001D01*
X233001Y26500D02*
Y25167D01*
Y25834D01*
X237000D01*
Y26500D01*
Y25167D01*
X233001Y21168D02*
Y22501D01*
X233668Y23168D01*
X236334D01*
X237000Y22501D01*
Y21168D01*
X236334Y20502D01*
X233668D01*
X233001Y21168D01*
X237000Y17170D02*
X233001D01*
X235001Y19169D01*
Y16503D01*
X233001Y12505D02*
X233668Y13837D01*
X235001Y15170D01*
X236334D01*
X237000Y14504D01*
Y13171D01*
X236334Y12505D01*
X235667D01*
X235001Y13171D01*
Y15170D01*
X253668Y87900D02*
X253001Y87234D01*
Y85901D01*
X253668Y85234D01*
X254334D01*
X255001Y85901D01*
Y86567D01*
Y85901D01*
X255667Y85234D01*
X256334D01*
X257000Y85901D01*
Y87234D01*
X256334Y87900D01*
X253001Y83901D02*
X255667D01*
X257000Y82568D01*
X255667Y81235D01*
X253001D01*
X253668Y79903D02*
X253001Y79236D01*
Y77903D01*
X253668Y77237D01*
X254334D01*
X255001Y77903D01*
Y78570D01*
Y77903D01*
X255667Y77237D01*
X256334D01*
X257000Y77903D01*
Y79236D01*
X256334Y79903D01*
X133668Y87900D02*
X133001Y87234D01*
Y85901D01*
X133668Y85234D01*
X136334D01*
X137000Y85901D01*
Y87234D01*
X136334Y87900D01*
X133668D01*
X137000Y83901D02*
Y82568D01*
Y83235D01*
X133001D01*
X133668Y83901D01*
X137000Y80569D02*
Y79236D01*
Y79903D01*
X133001D01*
X133668Y80569D01*
X123668Y87900D02*
X123001Y87234D01*
Y85901D01*
X123668Y85234D01*
X126333D01*
X127000Y85901D01*
Y87234D01*
X126333Y87900D01*
X123668D01*
X127000Y83901D02*
Y82568D01*
Y83235D01*
X123001D01*
X123668Y83901D01*
X127000Y77903D02*
Y80569D01*
X124334Y77903D01*
X123668D01*
X123001Y78570D01*
Y79903D01*
X123668Y80569D01*
X113668Y87900D02*
X113001Y87234D01*
Y85901D01*
X113668Y85234D01*
X116333D01*
X117000Y85901D01*
Y87234D01*
X116333Y87900D01*
X113668D01*
X117000Y83901D02*
Y82568D01*
Y83235D01*
X113001D01*
X113668Y83901D01*
Y80569D02*
X113001Y79903D01*
Y78570D01*
X113668Y77903D01*
X114334D01*
X115001Y78570D01*
Y79236D01*
Y78570D01*
X115667Y77903D01*
X116333D01*
X117000Y78570D01*
Y79903D01*
X116333Y80569D01*
X103668Y87900D02*
X103001Y87234D01*
Y85901D01*
X103668Y85234D01*
X106333D01*
X107000Y85901D01*
Y87234D01*
X106333Y87900D01*
X103668D01*
X107000Y83901D02*
Y82568D01*
Y83235D01*
X103001D01*
X103668Y83901D01*
X107000Y78570D02*
X103001D01*
X105001Y80569D01*
Y77903D01*
X93668Y87900D02*
X93001Y87234D01*
Y85901D01*
X93668Y85234D01*
X96334D01*
X97000Y85901D01*
Y87234D01*
X96334Y87900D01*
X93668D01*
X97000Y83901D02*
Y82568D01*
Y83235D01*
X93001D01*
X93668Y83901D01*
X93001Y77903D02*
Y80569D01*
X95001D01*
X94334Y79236D01*
Y78570D01*
X95001Y77903D01*
X96334D01*
X97000Y78570D01*
Y79903D01*
X96334Y80569D01*
X83668Y87900D02*
X83001Y87234D01*
Y85901D01*
X83668Y85234D01*
X86334D01*
X87000Y85901D01*
Y87234D01*
X86334Y87900D01*
X83668D01*
X87000Y83901D02*
Y82568D01*
Y83235D01*
X83001D01*
X83668Y83901D01*
X83001Y77903D02*
X83668Y79236D01*
X85001Y80569D01*
X86334D01*
X87000Y79903D01*
Y78570D01*
X86334Y77903D01*
X85667D01*
X85001Y78570D01*
Y80569D01*
X73668Y87900D02*
X73001Y87234D01*
Y85901D01*
X73668Y85234D01*
X76334D01*
X77000Y85901D01*
Y87234D01*
X76334Y87900D01*
X73668D01*
X77000Y83901D02*
Y82568D01*
Y83235D01*
X73001D01*
X73668Y83901D01*
X73001Y80569D02*
Y77903D01*
X73668D01*
X76334Y80569D01*
X77000D01*
X63668Y87900D02*
X63001Y87234D01*
Y85901D01*
X63668Y85234D01*
X66334D01*
X67000Y85901D01*
Y87234D01*
X66334Y87900D01*
X63668D01*
X67000Y83901D02*
Y82568D01*
Y83235D01*
X63001D01*
X63668Y83901D01*
Y80569D02*
X63001Y79903D01*
Y78570D01*
X63668Y77903D01*
X64334D01*
X65001Y78570D01*
X65667Y77903D01*
X66334D01*
X67000Y78570D01*
Y79903D01*
X66334Y80569D01*
X65667D01*
X65001Y79903D01*
X64334Y80569D01*
X63668D01*
X65001Y79903D02*
Y78570D01*
X53001Y85234D02*
Y87900D01*
X55001D01*
X54334Y86567D01*
Y85901D01*
X55001Y85234D01*
X56334D01*
X57000Y85901D01*
Y87234D01*
X56334Y87900D01*
X53001Y83901D02*
X55667D01*
X57000Y82568D01*
X55667Y81235D01*
X53001D01*
X43668Y85234D02*
X43001Y85901D01*
Y87234D01*
X43668Y87900D01*
X46334D01*
X47000Y87234D01*
Y85901D01*
X46334Y85234D01*
X45001D01*
Y86567D01*
X47000Y83901D02*
X43001D01*
X47000Y81235D01*
X43001D01*
Y79903D02*
X47000D01*
Y77903D01*
X46334Y77237D01*
X43668D01*
X43001Y77903D01*
Y79903D01*
X37000Y87900D02*
X33001D01*
X37000Y85234D01*
X33001D01*
X33668Y81235D02*
X33001Y81902D01*
Y83235D01*
X33668Y83901D01*
X36334D01*
X37000Y83235D01*
Y81902D01*
X36334Y81235D01*
X143001Y85901D02*
Y87234D01*
X143668Y87900D01*
X146334D01*
X147000Y87234D01*
Y85901D01*
X146334Y85234D01*
X143668D01*
X143001Y85901D01*
X147000Y83901D02*
Y82568D01*
Y83235D01*
X143001D01*
X143668Y83901D01*
Y80569D02*
X143001Y79903D01*
Y78570D01*
X143668Y77903D01*
X146334D01*
X147000Y78570D01*
Y79903D01*
X146334Y80569D01*
X143668D01*
X157000Y87900D02*
Y86567D01*
Y87234D01*
X153001D01*
X153668Y87900D01*
Y84568D02*
X153001Y83901D01*
Y82568D01*
X153668Y81902D01*
X156333D01*
X157000Y82568D01*
Y83901D01*
X156333Y84568D01*
X153668D01*
X156333Y80569D02*
X157000Y79903D01*
Y78570D01*
X156333Y77903D01*
X153668D01*
X153001Y78570D01*
Y79903D01*
X153668Y80569D01*
X154334D01*
X155001Y79903D01*
Y77903D01*
X167000Y87900D02*
Y86567D01*
Y87234D01*
X163001D01*
X163668Y87900D01*
Y84568D02*
X163001Y83901D01*
Y82568D01*
X163668Y81902D01*
X166333D01*
X167000Y82568D01*
Y83901D01*
X166333Y84568D01*
X163668D01*
Y80569D02*
X163001Y79903D01*
Y78570D01*
X163668Y77903D01*
X164334D01*
X165001Y78570D01*
X165667Y77903D01*
X166333D01*
X167000Y78570D01*
Y79903D01*
X166333Y80569D01*
X165667D01*
X165001Y79903D01*
X164334Y80569D01*
X163668D01*
X165001Y79903D02*
Y78570D01*
X177000Y87900D02*
Y86567D01*
Y87234D01*
X173001D01*
X173668Y87900D01*
Y84568D02*
X173001Y83901D01*
Y82568D01*
X173668Y81902D01*
X176333D01*
X177000Y82568D01*
Y83901D01*
X176333Y84568D01*
X173668D01*
X173001Y80569D02*
Y77903D01*
X173668D01*
X176333Y80569D01*
X177000D01*
X187000Y87900D02*
Y86567D01*
Y87234D01*
X183001D01*
X183668Y87900D01*
Y84568D02*
X183001Y83901D01*
Y82568D01*
X183668Y81902D01*
X186334D01*
X187000Y82568D01*
Y83901D01*
X186334Y84568D01*
X183668D01*
X183001Y77903D02*
X183668Y79236D01*
X185001Y80569D01*
X186334D01*
X187000Y79903D01*
Y78570D01*
X186334Y77903D01*
X185667D01*
X185001Y78570D01*
Y80569D01*
X197000Y87900D02*
Y86567D01*
Y87234D01*
X193001D01*
X193668Y87900D01*
Y84568D02*
X193001Y83901D01*
Y82568D01*
X193668Y81902D01*
X196334D01*
X197000Y82568D01*
Y83901D01*
X196334Y84568D01*
X193668D01*
X193001Y77903D02*
Y80569D01*
X195001D01*
X194334Y79236D01*
Y78570D01*
X195001Y77903D01*
X196334D01*
X197000Y78570D01*
Y79903D01*
X196334Y80569D01*
X207000Y87900D02*
Y86567D01*
Y87234D01*
X203001D01*
X203668Y87900D01*
Y84568D02*
X203001Y83901D01*
Y82568D01*
X203668Y81902D01*
X206334D01*
X207000Y82568D01*
Y83901D01*
X206334Y84568D01*
X203668D01*
X207000Y78570D02*
X203001D01*
X205001Y80569D01*
Y77903D01*
X213001Y87900D02*
Y86567D01*
Y87234D01*
X217000D01*
Y87900D01*
Y86567D01*
X213001Y82568D02*
Y83901D01*
X213668Y84568D01*
X216334D01*
X217000Y83901D01*
Y82568D01*
X216334Y81902D01*
X213668D01*
X213001Y82568D01*
X213668Y80569D02*
X213001Y79903D01*
Y78570D01*
X213668Y77903D01*
X214334D01*
X215001Y78570D01*
Y79236D01*
Y78570D01*
X215667Y77903D01*
X216334D01*
X217000Y78570D01*
Y79903D01*
X216334Y80569D01*
X223001Y87900D02*
Y86567D01*
Y87234D01*
X227000D01*
Y87900D01*
Y86567D01*
X223668Y84568D02*
X223001Y83901D01*
Y82568D01*
X223668Y81902D01*
X226334D01*
X227000Y82568D01*
Y83901D01*
X226334Y84568D01*
X223668D01*
X227000Y77903D02*
Y80569D01*
X224334Y77903D01*
X223668D01*
X223001Y78570D01*
Y79903D01*
X223668Y80569D01*
X233001Y87900D02*
Y86567D01*
Y87234D01*
X237000D01*
Y87900D01*
Y86567D01*
X233668Y84568D02*
X233001Y83901D01*
Y82568D01*
X233668Y81902D01*
X236334D01*
X237000Y82568D01*
Y83901D01*
X236334Y84568D01*
X233668D01*
X237000Y80569D02*
Y79236D01*
Y79903D01*
X233001D01*
X233668Y80569D01*
X243001Y87900D02*
Y86567D01*
Y87234D01*
X247000D01*
Y87900D01*
Y86567D01*
X243668Y84568D02*
X243001Y83901D01*
Y82568D01*
X243668Y81902D01*
X246334D01*
X247000Y82568D01*
Y83901D01*
X246334Y84568D01*
X243668D01*
Y80569D02*
X243001Y79903D01*
Y78570D01*
X243668Y77903D01*
X246334D01*
X247000Y78570D01*
Y79903D01*
X246334Y80569D01*
X243668D01*
X263668Y85234D02*
X263001Y85901D01*
Y87234D01*
X263668Y87900D01*
X266334D01*
X267000Y87234D01*
Y85901D01*
X266334Y85234D01*
X265001D01*
Y86567D01*
X267000Y83901D02*
X263001D01*
X267000Y81235D01*
X263001D01*
Y79903D02*
X267000D01*
Y77903D01*
X266334Y77237D01*
X263668D01*
X263001Y77903D01*
Y79903D01*
X262600Y-3500D02*
Y-2167D01*
Y-2833D01*
X266599D01*
X265932Y-3500D01*
X262600Y102100D02*
Y103433D01*
Y102767D01*
X266599D01*
X265932Y102100D01*
D62*
X223800Y63700D02*
Y70698D01*
X221467Y68365D01*
X219135Y70698D01*
Y63700D01*
X216802D02*
Y68365D01*
X214470Y70698D01*
X212137Y68365D01*
Y63700D01*
Y67199D01*
X216802D01*
X209805Y70698D02*
Y63700D01*
X206306D01*
X205139Y64866D01*
Y69531D01*
X206306Y70698D01*
X209805D01*
X198142D02*
X202807D01*
Y63700D01*
X198142D01*
X202807Y67199D02*
X200474D01*
X188811Y70698D02*
X186479D01*
X187645D01*
Y63700D01*
X188811D01*
X186479D01*
X182980D02*
Y70698D01*
X178315Y63700D01*
Y70698D01*
X164319Y69531D02*
X165486Y70698D01*
X167818D01*
X168984Y69531D01*
Y68365D01*
X167818Y67199D01*
X165486D01*
X164319Y66033D01*
Y64866D01*
X165486Y63700D01*
X167818D01*
X168984Y64866D01*
X161987Y63700D02*
Y70698D01*
X158488D01*
X157322Y69531D01*
Y67199D01*
X158488Y66033D01*
X161987D01*
X154989Y63700D02*
Y68365D01*
X152656Y70698D01*
X150324Y68365D01*
Y63700D01*
Y67199D01*
X154989D01*
X147991Y70698D02*
X145659D01*
X146825D01*
Y63700D01*
X147991D01*
X145659D01*
X142160D02*
Y70698D01*
X137495Y63700D01*
Y70698D01*
X128164Y63700D02*
Y68365D01*
X125832Y70698D01*
X123499Y68365D01*
Y63700D01*
Y67199D01*
X128164D01*
X121167Y63700D02*
Y70698D01*
X116501Y63700D01*
Y70698D01*
X114169D02*
Y63700D01*
X110670D01*
X109504Y64866D01*
Y69531D01*
X110670Y70698D01*
X114169D01*
X100173D02*
Y63700D01*
Y66033D01*
X95508Y70698D01*
X99007Y67199D01*
X95508Y63700D01*
X88510Y70698D02*
X93176D01*
Y63700D01*
X88510D01*
X93176Y67199D02*
X90843D01*
X86178Y63700D02*
Y70698D01*
X81513Y63700D01*
Y70698D01*
X79180D02*
Y69531D01*
X76847Y67199D01*
X74515Y69531D01*
Y70698D01*
X76847Y67199D02*
Y63700D01*
X72182D02*
Y68365D01*
X69850Y70698D01*
X67517Y68365D01*
Y63700D01*
Y67199D01*
X72182D01*
X233800Y60698D02*
Y53700D01*
X230301D01*
X229135Y54866D01*
Y56033D01*
X230301Y57199D01*
X233800D01*
X230301D01*
X229135Y58365D01*
Y59531D01*
X230301Y60698D01*
X233800D01*
X226802D02*
Y59531D01*
X224470Y57199D01*
X222137Y59531D01*
Y60698D01*
X224470Y57199D02*
Y53700D01*
X212807D02*
Y58365D01*
X210474Y60698D01*
X208142Y58365D01*
Y53700D01*
Y57199D01*
X212807D01*
X205809Y53700D02*
Y60698D01*
X201144Y53700D01*
Y60698D01*
X198811D02*
X194146D01*
X196479D01*
Y53700D01*
X191814Y60698D02*
Y53700D01*
Y57199D01*
X187148D01*
Y60698D01*
Y53700D01*
X181317Y60698D02*
X183650D01*
X184816Y59531D01*
Y54866D01*
X183650Y53700D01*
X181317D01*
X180151Y54866D01*
Y59531D01*
X181317Y60698D01*
X177818Y53700D02*
Y60698D01*
X173153Y53700D01*
Y60698D01*
X170820D02*
Y59531D01*
X168488Y57199D01*
X166155Y59531D01*
Y60698D01*
X168488Y57199D02*
Y53700D01*
X156825Y60698D02*
Y53700D01*
Y56033D01*
X152160Y60698D01*
X155659Y57199D01*
X152160Y53700D01*
X149827Y60698D02*
X147494D01*
X148661D01*
Y53700D01*
X149827D01*
X147494D01*
X143996D02*
Y60698D01*
X140497D01*
X139330Y59531D01*
Y57199D01*
X140497Y56033D01*
X143996D01*
X141663D02*
X139330Y53700D01*
X136998D02*
Y58365D01*
X134665Y60698D01*
X132333Y58365D01*
Y53700D01*
Y57199D01*
X136998D01*
X130000Y53700D02*
Y60698D01*
X125335Y53700D01*
Y60698D01*
X118337Y59531D02*
X119504Y60698D01*
X121836D01*
X123002Y59531D01*
Y54866D01*
X121836Y53700D01*
X119504D01*
X118337Y54866D01*
Y57199D01*
X120670D01*
X116005Y53700D02*
Y58365D01*
X113672Y60698D01*
X111340Y58365D01*
Y53700D01*
Y57199D01*
X116005D01*
X102009Y53700D02*
Y60698D01*
X97344Y53700D01*
Y60698D01*
X95012D02*
Y53700D01*
X91513D01*
X90346Y54866D01*
Y59531D01*
X91513Y60698D01*
X95012D01*
X88014D02*
X85681D01*
X86848D01*
Y53700D01*
X88014D01*
X85681D01*
X82182D02*
Y60698D01*
X78683D01*
X77517Y59531D01*
Y57199D01*
X78683Y56033D01*
X82182D01*
X79850D02*
X77517Y53700D01*
X75185Y60698D02*
X72852D01*
X74018D01*
Y53700D01*
X75185D01*
X72852D01*
X69353Y60698D02*
X64688D01*
X67020D01*
Y53700D01*
X62355Y60698D02*
Y54866D01*
X61189Y53700D01*
X58856D01*
X57690Y54866D01*
Y60698D01*
D78*
X30000Y0D02*
X270000D01*
X30000D02*
Y10000D01*
X270000D01*
Y0D02*
Y10000D01*
X30000Y90000D02*
X270000D01*
X30000D02*
Y100000D01*
X270000D01*
Y90000D02*
Y100000D01*
M02*
