G04*
G04 #@! TF.GenerationSoftware,Altium Limited,Altium Designer,24.5.2 (23)*
G04*
G04 Layer_Color=8388736*
%FSLAX25Y25*%
%MOIN*%
G70*
G04*
G04 #@! TF.SameCoordinates,24FF50D2-DFE2-4597-A0F4-7CAA859AE4CF*
G04*
G04*
G04 #@! TF.FilePolarity,Negative*
G04*
G01*
G75*
%ADD20R,0.04528X0.01181*%
%ADD21R,0.04528X0.02362*%
%ADD23R,0.05343X0.02253*%
G04:AMPARAMS|DCode=24|XSize=53.43mil|YSize=22.53mil|CornerRadius=11.26mil|HoleSize=0mil|Usage=FLASHONLY|Rotation=0.000|XOffset=0mil|YOffset=0mil|HoleType=Round|Shape=RoundedRectangle|*
%AMROUNDEDRECTD24*
21,1,0.05343,0.00000,0,0,0.0*
21,1,0.03091,0.02253,0,0,0.0*
1,1,0.02253,0.01545,0.00000*
1,1,0.02253,-0.01545,0.00000*
1,1,0.02253,-0.01545,0.00000*
1,1,0.02253,0.01545,0.00000*
%
%ADD24ROUNDEDRECTD24*%
G04:AMPARAMS|DCode=29|XSize=9.55mil|YSize=33.06mil|CornerRadius=4.77mil|HoleSize=0mil|Usage=FLASHONLY|Rotation=270.000|XOffset=0mil|YOffset=0mil|HoleType=Round|Shape=RoundedRectangle|*
%AMROUNDEDRECTD29*
21,1,0.00955,0.02351,0,0,270.0*
21,1,0.00000,0.03306,0,0,270.0*
1,1,0.00955,-0.01176,0.00000*
1,1,0.00955,-0.01176,0.00000*
1,1,0.00955,0.01176,0.00000*
1,1,0.00955,0.01176,0.00000*
%
%ADD29ROUNDEDRECTD29*%
G04:AMPARAMS|DCode=30|XSize=33.06mil|YSize=9.55mil|CornerRadius=4.77mil|HoleSize=0mil|Usage=FLASHONLY|Rotation=270.000|XOffset=0mil|YOffset=0mil|HoleType=Round|Shape=RoundedRectangle|*
%AMROUNDEDRECTD30*
21,1,0.03306,0.00000,0,0,270.0*
21,1,0.02351,0.00955,0,0,270.0*
1,1,0.00955,0.00000,-0.01176*
1,1,0.00955,0.00000,0.01176*
1,1,0.00955,0.00000,0.01176*
1,1,0.00955,0.00000,-0.01176*
%
%ADD30ROUNDEDRECTD30*%
%ADD31R,0.00955X0.03306*%
%ADD32R,0.06102X0.05118*%
G04:AMPARAMS|DCode=37|XSize=27.62mil|YSize=30.38mil|CornerRadius=4.95mil|HoleSize=0mil|Usage=FLASHONLY|Rotation=0.000|XOffset=0mil|YOffset=0mil|HoleType=Round|Shape=RoundedRectangle|*
%AMROUNDEDRECTD37*
21,1,0.02762,0.02047,0,0,0.0*
21,1,0.01772,0.03038,0,0,0.0*
1,1,0.00991,0.00886,-0.01024*
1,1,0.00991,-0.00886,-0.01024*
1,1,0.00991,-0.00886,0.01024*
1,1,0.00991,0.00886,0.01024*
%
%ADD37ROUNDEDRECTD37*%
%ADD38R,0.02762X0.02526*%
%ADD39R,0.03156X0.02762*%
%ADD40R,0.02526X0.02762*%
G04:AMPARAMS|DCode=41|XSize=27.62mil|YSize=30.38mil|CornerRadius=4.95mil|HoleSize=0mil|Usage=FLASHONLY|Rotation=270.000|XOffset=0mil|YOffset=0mil|HoleType=Round|Shape=RoundedRectangle|*
%AMROUNDEDRECTD41*
21,1,0.02762,0.02047,0,0,270.0*
21,1,0.01772,0.03038,0,0,270.0*
1,1,0.00991,-0.01024,-0.00886*
1,1,0.00991,-0.01024,0.00886*
1,1,0.00991,0.01024,0.00886*
1,1,0.00991,0.01024,-0.00886*
%
%ADD41ROUNDEDRECTD41*%
%ADD42R,0.01778X0.02762*%
%ADD43R,0.02762X0.01778*%
G04:AMPARAMS|DCode=44|XSize=129.98mil|YSize=72.9mil|CornerRadius=4.07mil|HoleSize=0mil|Usage=FLASHONLY|Rotation=90.000|XOffset=0mil|YOffset=0mil|HoleType=Round|Shape=RoundedRectangle|*
%AMROUNDEDRECTD44*
21,1,0.12998,0.06476,0,0,90.0*
21,1,0.12185,0.07290,0,0,90.0*
1,1,0.00813,0.03238,0.06093*
1,1,0.00813,0.03238,-0.06093*
1,1,0.00813,-0.03238,-0.06093*
1,1,0.00813,-0.03238,0.06093*
%
%ADD44ROUNDEDRECTD44*%
G04:AMPARAMS|DCode=45|XSize=39.43mil|YSize=72.9mil|CornerRadius=3.95mil|HoleSize=0mil|Usage=FLASHONLY|Rotation=90.000|XOffset=0mil|YOffset=0mil|HoleType=Round|Shape=RoundedRectangle|*
%AMROUNDEDRECTD45*
21,1,0.03943,0.06500,0,0,90.0*
21,1,0.03154,0.07290,0,0,90.0*
1,1,0.00790,0.03250,0.01577*
1,1,0.00790,0.03250,-0.01577*
1,1,0.00790,-0.03250,-0.01577*
1,1,0.00790,-0.03250,0.01577*
%
%ADD45ROUNDEDRECTD45*%
%ADD46R,0.08071X0.08071*%
%ADD47R,0.05124X0.05124*%
%ADD48R,0.03550X0.01975*%
%ADD49R,0.01975X0.03550*%
%ADD50R,0.03550X0.03550*%
G04:AMPARAMS|DCode=51|XSize=39.37mil|YSize=70.87mil|CornerRadius=19.68mil|HoleSize=0mil|Usage=FLASHONLY|Rotation=270.000|XOffset=0mil|YOffset=0mil|HoleType=Round|Shape=RoundedRectangle|*
%AMROUNDEDRECTD51*
21,1,0.03937,0.03150,0,0,270.0*
21,1,0.00000,0.07087,0,0,270.0*
1,1,0.03937,-0.01575,0.00000*
1,1,0.03937,-0.01575,0.00000*
1,1,0.03937,0.01575,0.00000*
1,1,0.03937,0.01575,0.00000*
%
%ADD51ROUNDEDRECTD51*%
G04:AMPARAMS|DCode=52|XSize=39.37mil|YSize=86.61mil|CornerRadius=19.68mil|HoleSize=0mil|Usage=FLASHONLY|Rotation=270.000|XOffset=0mil|YOffset=0mil|HoleType=Round|Shape=RoundedRectangle|*
%AMROUNDEDRECTD52*
21,1,0.03937,0.04724,0,0,270.0*
21,1,0.00000,0.08661,0,0,270.0*
1,1,0.03937,-0.02362,0.00000*
1,1,0.03937,-0.02362,0.00000*
1,1,0.03937,0.02362,0.00000*
1,1,0.03937,0.02362,0.00000*
%
%ADD52ROUNDEDRECTD52*%
%ADD53R,0.06800X0.06800*%
%ADD54C,0.06800*%
%ADD55C,0.04400*%
%ADD56R,0.04400X0.04400*%
%ADD57R,0.04400X0.04400*%
G36*
X243244Y53740D02*
Y59252D01*
X246197D01*
X248756Y56693D01*
Y53740D01*
X243244D01*
D02*
G37*
D20*
X24764Y84882D02*
D03*
Y82913D02*
D03*
Y80945D02*
D03*
Y78976D02*
D03*
Y77008D02*
D03*
Y75039D02*
D03*
Y73071D02*
D03*
Y71102D02*
D03*
Y15118D02*
D03*
Y17087D02*
D03*
Y19055D02*
D03*
Y21024D02*
D03*
Y22992D02*
D03*
Y24961D02*
D03*
Y26929D02*
D03*
Y28898D02*
D03*
D21*
Y68543D02*
D03*
Y87441D02*
D03*
Y90591D02*
D03*
Y65394D02*
D03*
Y9409D02*
D03*
Y34606D02*
D03*
Y31457D02*
D03*
Y12559D02*
D03*
D23*
X108258Y84740D02*
D03*
Y70740D02*
D03*
D24*
Y77260D02*
D03*
X115742Y81000D02*
D03*
X108258Y63260D02*
D03*
X115742Y67000D02*
D03*
D29*
X78541Y80937D02*
D03*
Y78969D02*
D03*
Y77000D02*
D03*
Y75032D02*
D03*
Y73063D02*
D03*
X63459D02*
D03*
Y75032D02*
D03*
Y77000D02*
D03*
Y78969D02*
D03*
Y80937D02*
D03*
D30*
X74937Y69459D02*
D03*
X72969D02*
D03*
X71000D02*
D03*
X69032D02*
D03*
X67063D02*
D03*
Y84541D02*
D03*
X69032D02*
D03*
X71000D02*
D03*
X72969D02*
D03*
D31*
X74937D02*
D03*
D32*
X155650Y16142D02*
D03*
X124350D02*
D03*
X155650Y33858D02*
D03*
X124350D02*
D03*
X155650Y66142D02*
D03*
X124350D02*
D03*
X155650Y83858D02*
D03*
X124350D02*
D03*
D37*
X42279Y37000D02*
D03*
X45720D02*
D03*
X265721Y85500D02*
D03*
X262280D02*
D03*
X42279Y63000D02*
D03*
X45720D02*
D03*
X72280Y56000D02*
D03*
X75721D02*
D03*
X72280Y61000D02*
D03*
X75721D02*
D03*
X262280Y14500D02*
D03*
X265721D02*
D03*
X92721Y80000D02*
D03*
X89280D02*
D03*
X51279Y68000D02*
D03*
X54720D02*
D03*
Y85000D02*
D03*
X51279D02*
D03*
X248721Y85500D02*
D03*
X245280D02*
D03*
X253780D02*
D03*
X257221D02*
D03*
D38*
X179000Y21701D02*
D03*
Y18299D02*
D03*
X101000Y84701D02*
D03*
Y81299D02*
D03*
Y63299D02*
D03*
Y66701D02*
D03*
X41000Y13299D02*
D03*
Y16701D02*
D03*
Y26701D02*
D03*
Y23299D02*
D03*
X179000Y81701D02*
D03*
Y78299D02*
D03*
X60000Y57299D02*
D03*
Y60701D02*
D03*
X41000Y81299D02*
D03*
Y84701D02*
D03*
Y74701D02*
D03*
Y71299D02*
D03*
X165000Y27299D02*
D03*
Y30701D02*
D03*
D39*
X173000Y21870D02*
D03*
Y18130D02*
D03*
Y78130D02*
D03*
Y81870D02*
D03*
D40*
X211799Y14500D02*
D03*
X215201D02*
D03*
X201799D02*
D03*
X205201D02*
D03*
X68898Y51000D02*
D03*
X72299D02*
D03*
X75701D02*
D03*
X72299D02*
D03*
X92701Y85000D02*
D03*
X89299D02*
D03*
X51299Y73500D02*
D03*
X54701D02*
D03*
X51299Y78500D02*
D03*
X54701D02*
D03*
X87299Y56000D02*
D03*
X90701D02*
D03*
Y66000D02*
D03*
X87299D02*
D03*
X90701Y61000D02*
D03*
X87299D02*
D03*
X195299Y84000D02*
D03*
X198701D02*
D03*
X195299Y79000D02*
D03*
X198701D02*
D03*
X191898Y51800D02*
D03*
X195299D02*
D03*
X191898Y44800D02*
D03*
X195299D02*
D03*
X198701Y51800D02*
D03*
X195299D02*
D03*
X198701Y44800D02*
D03*
X195299D02*
D03*
D41*
X65000Y60720D02*
D03*
Y57279D02*
D03*
X58000Y34280D02*
D03*
Y37721D02*
D03*
Y20279D02*
D03*
Y23720D02*
D03*
X53000D02*
D03*
Y20279D02*
D03*
X165000Y18280D02*
D03*
Y21721D02*
D03*
Y68721D02*
D03*
Y65280D02*
D03*
D42*
X35280Y37000D02*
D03*
X32721D02*
D03*
Y63000D02*
D03*
X35280D02*
D03*
D43*
X33500Y18000D02*
D03*
Y15441D02*
D03*
Y22000D02*
D03*
Y24559D02*
D03*
Y71720D02*
D03*
Y74279D02*
D03*
Y82279D02*
D03*
Y79720D02*
D03*
D44*
X90303Y29000D02*
D03*
D45*
X65697Y19945D02*
D03*
Y29000D02*
D03*
Y38055D02*
D03*
D46*
X71000Y77000D02*
D03*
D47*
X239504Y56496D02*
D03*
X233008D02*
D03*
Y50000D02*
D03*
Y43504D02*
D03*
X239504D02*
D03*
X246000D02*
D03*
X239504Y50000D02*
D03*
X246000D02*
D03*
D48*
X267063Y73425D02*
D03*
Y70079D02*
D03*
Y66732D02*
D03*
Y63386D02*
D03*
Y60039D02*
D03*
Y56693D02*
D03*
Y53347D02*
D03*
Y50000D02*
D03*
Y46654D02*
D03*
Y43307D02*
D03*
Y39961D02*
D03*
Y36614D02*
D03*
Y33268D02*
D03*
Y29921D02*
D03*
Y26575D02*
D03*
X211945D02*
D03*
Y29921D02*
D03*
Y33268D02*
D03*
Y36614D02*
D03*
Y39961D02*
D03*
Y43307D02*
D03*
Y46654D02*
D03*
Y50000D02*
D03*
Y53347D02*
D03*
Y56693D02*
D03*
Y60039D02*
D03*
Y63386D02*
D03*
Y66732D02*
D03*
Y70079D02*
D03*
Y73425D02*
D03*
D49*
X262929Y22441D02*
D03*
X259583D02*
D03*
X256236D02*
D03*
X252890D02*
D03*
X249543D02*
D03*
X246197D02*
D03*
X242850D02*
D03*
X239504D02*
D03*
X236157D02*
D03*
X232811D02*
D03*
X229465D02*
D03*
X226118D02*
D03*
X222772D02*
D03*
X219425D02*
D03*
X216079D02*
D03*
Y77559D02*
D03*
X219425D02*
D03*
X222772D02*
D03*
X226118D02*
D03*
X229465D02*
D03*
X232811D02*
D03*
X236157D02*
D03*
X239504D02*
D03*
X242850D02*
D03*
X246197D02*
D03*
X249543D02*
D03*
X252890D02*
D03*
X256236D02*
D03*
X259583D02*
D03*
X262929D02*
D03*
D50*
X211945Y22441D02*
D03*
X267063D02*
D03*
X211945Y77559D02*
D03*
X267063D02*
D03*
D51*
X22500Y60984D02*
D03*
Y95000D02*
D03*
Y39016D02*
D03*
Y5000D02*
D03*
D52*
X6752Y60984D02*
D03*
Y95000D02*
D03*
Y39016D02*
D03*
Y5000D02*
D03*
D53*
X265000D02*
D03*
Y95000D02*
D03*
D54*
X255000Y5000D02*
D03*
X245000D02*
D03*
X235000D02*
D03*
X225000D02*
D03*
X215000D02*
D03*
X205000D02*
D03*
X195000D02*
D03*
X185000D02*
D03*
X175000D02*
D03*
X165000D02*
D03*
X155000D02*
D03*
X145000D02*
D03*
X135000D02*
D03*
X125000D02*
D03*
X115000D02*
D03*
X105000D02*
D03*
X95000D02*
D03*
X85000D02*
D03*
X75000D02*
D03*
X65000D02*
D03*
X55000D02*
D03*
X45000D02*
D03*
X35000D02*
D03*
X255000Y95000D02*
D03*
X245000D02*
D03*
X235000D02*
D03*
X225000D02*
D03*
X215000D02*
D03*
X205000D02*
D03*
X195000D02*
D03*
X185000D02*
D03*
X175000D02*
D03*
X165000D02*
D03*
X155000D02*
D03*
X145000D02*
D03*
X135000D02*
D03*
X125000D02*
D03*
X115000D02*
D03*
X105000D02*
D03*
X95000D02*
D03*
X85000D02*
D03*
X75000D02*
D03*
X65000D02*
D03*
X55000D02*
D03*
X45000D02*
D03*
X35000D02*
D03*
D55*
X37500Y50000D02*
D03*
Y45000D02*
D03*
X142500Y50000D02*
D03*
D56*
X37500Y55000D02*
D03*
D57*
X137500Y50000D02*
D03*
M02*
