G04*
G04 #@! TF.GenerationSoftware,Altium Limited,Altium Designer,24.5.2 (23)*
G04*
G04 Layer_Physical_Order=4*
G04 Layer_Color=16711680*
%FSLAX25Y25*%
%MOIN*%
G70*
G04*
G04 #@! TF.SameCoordinates,24FF50D2-DFE2-4597-A0F4-7CAA859AE4CF*
G04*
G04*
G04 #@! TF.FilePolarity,Positive*
G04*
G01*
G75*
%ADD11C,0.00600*%
G04:AMPARAMS|DCode=51|XSize=39.37mil|YSize=70.87mil|CornerRadius=19.68mil|HoleSize=0mil|Usage=FLASHONLY|Rotation=270.000|XOffset=0mil|YOffset=0mil|HoleType=Round|Shape=RoundedRectangle|*
%AMROUNDEDRECTD51*
21,1,0.03937,0.03150,0,0,270.0*
21,1,0.00000,0.07087,0,0,270.0*
1,1,0.03937,-0.01575,0.00000*
1,1,0.03937,-0.01575,0.00000*
1,1,0.03937,0.01575,0.00000*
1,1,0.03937,0.01575,0.00000*
%
%ADD51ROUNDEDRECTD51*%
G04:AMPARAMS|DCode=52|XSize=39.37mil|YSize=86.61mil|CornerRadius=19.68mil|HoleSize=0mil|Usage=FLASHONLY|Rotation=270.000|XOffset=0mil|YOffset=0mil|HoleType=Round|Shape=RoundedRectangle|*
%AMROUNDEDRECTD52*
21,1,0.03937,0.04724,0,0,270.0*
21,1,0.00000,0.08661,0,0,270.0*
1,1,0.03937,-0.02362,0.00000*
1,1,0.03937,-0.02362,0.00000*
1,1,0.03937,0.02362,0.00000*
1,1,0.03937,0.02362,0.00000*
%
%ADD52ROUNDEDRECTD52*%
%ADD63C,0.00603*%
%ADD64R,0.06400X0.06400*%
%ADD65C,0.06400*%
%ADD66C,0.04000*%
%ADD67R,0.04000X0.04000*%
%ADD68R,0.04000X0.04000*%
%ADD69C,0.02400*%
%ADD70C,0.04000*%
%ADD78C,0.01000*%
%ADD79C,0.01000*%
D11*
X137343Y87000D02*
X140750Y83593D01*
X123000Y87000D02*
X137343D01*
X85328Y90000D02*
X91628Y83700D01*
X102300D01*
X105000Y81000D01*
X121328Y69500D02*
X157172D01*
X109828Y81000D02*
X121328Y69500D01*
X105000Y81000D02*
X109828D01*
X82258Y90622D02*
X82313Y90566D01*
X82774Y90304D02*
X83140Y90211D01*
X83279Y90192D01*
X84640Y90000D02*
X85328D01*
X83279Y90192D02*
X84640Y90000D01*
X80568Y93000D02*
X80860Y92707D01*
X79856Y93000D02*
X80568D01*
X76987Y95100D02*
X79856Y93000D01*
X80861Y92707D02*
X80947Y92621D01*
X96000Y76500D02*
X111500D01*
X120500Y67500D02*
X149000D01*
X84500Y88000D02*
X96000Y76500D01*
X111500D02*
X120500Y67500D01*
X110500Y72000D02*
X117000Y65500D01*
X88000Y72000D02*
X110500D01*
X117000Y65500D02*
X146500D01*
X59000Y63286D02*
Y65000D01*
X74518Y62700D02*
X134300D01*
X74118Y62300D02*
X74518Y62700D01*
X59986Y62300D02*
X74118D01*
X59000Y63286D02*
X59986Y62300D01*
X134300Y62700D02*
X140700Y56300D01*
X160300D01*
X126200Y76300D02*
X157118D01*
X108533Y93967D02*
X126200Y76300D01*
X106033Y93967D02*
X108533D01*
X159000Y76500D02*
X163200Y72300D01*
X157318Y76500D02*
X159000D01*
X105000Y95000D02*
X106033Y93967D01*
X157118Y76300D02*
X157318Y76500D01*
X108125Y89374D02*
X124000Y73500D01*
X158828D01*
X157947Y83700D02*
X162586Y79061D01*
X152983Y85836D02*
X153225Y85593D01*
X155922D02*
X157815Y83700D01*
X141336Y85836D02*
X152983D01*
X162586Y78596D02*
X164882Y76300D01*
X153225Y85593D02*
X155922D01*
X157815Y83700D02*
X157947D01*
X162586Y78596D02*
Y79061D01*
X164882Y76300D02*
X177200D01*
X160586Y77767D02*
X164053Y74300D01*
X176372D01*
X156986Y81700D02*
X157118D01*
X160586Y78233D01*
X140750Y83593D02*
X155093D01*
X156986Y81700D01*
X160586Y77767D02*
Y78233D01*
X126768Y93884D02*
X126768Y93884D01*
X126764Y93880D02*
X126768Y93884D01*
X163200Y72300D02*
X175500D01*
X162028Y70300D02*
X174672D01*
X158828Y73500D02*
X162028Y70300D01*
X218000Y13700D02*
X228726D01*
X238383Y21164D02*
X238961Y21164D01*
X239547Y21750D01*
X234505Y17505D02*
X238383Y21164D01*
X232500Y15632D02*
X234505Y17505D01*
X228945Y13827D02*
X229693Y14310D01*
X230511Y14713D02*
X232500Y15632D01*
X229693Y14310D02*
X230210Y14568D01*
X239547Y21750D02*
Y26500D01*
X241547Y20922D02*
X242854Y22654D01*
X239211Y19164D02*
X239790D01*
X241547Y20922D01*
X233148Y13501D02*
X239211Y19164D01*
X242854Y22654D02*
Y32500D01*
X229961Y12103D02*
X230282Y12310D01*
X228990Y11700D02*
X229403Y11731D01*
X218872Y11700D02*
X228990D01*
X246240Y19569D02*
Y26500D01*
X240641Y13969D02*
X246240Y19569D01*
X230225Y9700D02*
X230263Y9738D01*
X237603Y11369D02*
X240641Y13969D01*
X237080Y11369D02*
X237603D01*
X219700Y9700D02*
X229823D01*
X230225Y9700D01*
X242000Y12500D02*
X242293Y12793D01*
X238001Y9076D02*
X242000Y12500D01*
X225000Y5000D02*
X229803D01*
X230096Y5293D01*
X237340Y9076D02*
X237593Y9076D01*
X230096Y5293D02*
X230330Y5527D01*
X242293Y12793D02*
X249547Y20047D01*
X237593Y9076D02*
X238001Y9076D01*
X192105Y12046D02*
X192188Y12062D01*
X201190Y13131D02*
X209447Y14789D01*
X192188Y12062D02*
X198123Y12162D01*
X199760Y12176D02*
X201190Y13131D01*
X198123Y12162D02*
X199392D01*
X199760Y12176D01*
X179712Y9712D02*
X192105Y12046D01*
X214524Y19700D02*
X226058D01*
X208273Y17300D02*
X212365Y18228D01*
X203483Y16634D02*
X206572Y17300D01*
X208272D01*
X214070Y19246D02*
X214524Y19700D01*
X200668Y15217D02*
X200700Y15236D01*
X212749Y18397D02*
X214070Y19246D01*
X200700Y15236D02*
X203483Y16634D01*
X198933Y14177D02*
X200668Y15217D01*
X212365Y18228D02*
X212749Y18397D01*
X213695Y21700D02*
X224500D01*
X213241Y21246D02*
X213695Y21700D01*
X204333Y19300D02*
X207443D01*
X211751Y20228D01*
X213241Y21246D01*
X204121Y19194D02*
X204333Y19300D01*
X198089Y16162D02*
X204121Y19194D01*
X185318Y15946D02*
X198089Y16162D01*
X224500Y21700D02*
X226161Y23361D01*
X179494Y9494D02*
X179712Y9712D01*
X175000Y5000D02*
X179494Y9494D01*
X175000Y5000D02*
X175000D01*
X198106Y14162D02*
X198563D01*
X180087Y12319D02*
X185623Y13951D01*
X177393Y11525D02*
X180087Y12319D01*
X198563Y14162D02*
X198931Y14176D01*
X185623Y13951D02*
X198106Y14162D01*
X165000Y5000D02*
X171000Y11000D01*
X174487D02*
X177257Y11390D01*
X177393Y11525D01*
X171000Y11000D02*
X174487D01*
X173658Y13000D02*
X176339Y13300D01*
X185318Y15946D01*
X167767Y13000D02*
X173658D01*
X165313Y12557D02*
X167767Y13000D01*
X162684Y9928D02*
X165091Y12336D01*
X165313Y12557D01*
X155946Y5946D02*
X158701D01*
X162684Y9928D02*
Y9928D01*
X158701Y5946D02*
X162684Y9928D01*
X155000Y5000D02*
X155946Y5946D01*
X173897Y15300D02*
X175510D01*
X185690Y18162D01*
X197000D01*
X172830Y15000D02*
X173897Y15300D01*
X164818Y15000D02*
X172830D01*
X163118Y16700D02*
X164818Y15000D01*
X160882Y16700D02*
X163118D01*
X159458Y15276D02*
X160882Y16700D01*
X170118Y17300D02*
X173318Y20500D01*
X196500D01*
X161853D02*
X164682D01*
X153699Y12346D02*
X161853Y20500D01*
X167882Y17300D02*
X170118D01*
X164682Y20500D02*
X167882Y17300D01*
X153182Y17485D02*
X160396Y24700D01*
X187775D02*
X187975Y24500D01*
X160396Y24700D02*
X187775D01*
X196500Y20500D02*
X202700Y26700D01*
X136500Y5000D02*
X142500Y11000D01*
X135000Y5000D02*
X136500D01*
X142500Y11000D02*
X150979D01*
X153699Y12346D01*
X127485Y17485D02*
X153182D01*
X115000Y5000D02*
X127485Y17485D01*
X125000Y5000D02*
X130117Y10117D01*
X135485Y15485D02*
X145509D01*
X130117Y10117D02*
X130117D01*
X135485Y15485D01*
X145509D02*
X145509Y15485D01*
X154010D01*
X110500Y10500D02*
X120000Y20000D01*
X158700Y26700D02*
X177396D01*
X120000Y20000D02*
X152000D01*
X158700Y26700D01*
X151500Y22500D02*
X157700Y28700D01*
X112500Y22500D02*
X151500D01*
X95000Y5000D02*
X112500Y22500D01*
X157700Y28700D02*
X176568D01*
X161225Y22700D02*
X186947D01*
X154303Y15778D02*
X161225Y22700D01*
X186947D02*
X187147Y22500D01*
X110500Y10500D02*
X110500D01*
X105000Y5000D02*
X110500Y10500D01*
X85000Y5000D02*
X104500Y24500D01*
X150000D02*
X156200Y30700D01*
X175740D01*
X104500Y24500D02*
X150000D01*
X171200Y34700D02*
X174500Y38000D01*
X146800Y29800D02*
X151700Y34700D01*
X97800Y29800D02*
X146800D01*
X151700Y34700D02*
X171200D01*
X174500Y38000D02*
X177000D01*
X153700Y32700D02*
X174911D01*
X148000Y27000D02*
X153700Y32700D01*
X85700Y9700D02*
X103000Y27000D01*
X148000D01*
X81500Y13500D02*
X97800Y29800D01*
X59700Y9700D02*
X85700D01*
X58318Y13500D02*
X81500D01*
X45000Y5000D02*
X53300Y13300D01*
X58118D02*
X58318Y13500D01*
X53300Y13300D02*
X58118D01*
X194700Y64300D02*
X196000Y63000D01*
X178972Y66000D02*
X189182D01*
X190882Y64300D02*
X194700D01*
X189182Y66000D02*
X190882Y64300D01*
X96000Y95000D02*
X101503Y89497D01*
X108003D01*
X95000Y95000D02*
X96000D01*
X98300Y89700D02*
X101700Y86300D01*
X108372D02*
X123172Y71500D01*
X101700Y86300D02*
X108372D01*
X90300Y89700D02*
X98300D01*
X85000Y95000D02*
X90300Y89700D01*
X85000Y95000D02*
Y95000D01*
X123172Y71500D02*
X158000D01*
X108003Y89497D02*
X108125Y89374D01*
X149000Y67500D02*
X151000Y65500D01*
X77403Y89000D02*
X83000Y88211D01*
X75000Y89000D02*
X77403D01*
X83000Y88211D02*
X84500Y88000D01*
X160333Y56333D02*
X160333D01*
X160300Y56300D02*
X160333Y56333D01*
X160333D02*
X165000Y61000D01*
X75000Y95000D02*
X75778Y95100D01*
X76987D01*
X59000Y82000D02*
X65447Y88447D01*
X59000Y65000D02*
Y82000D01*
X65447Y88447D02*
Y94553D01*
X161128Y54300D02*
X163919Y57091D01*
X149000Y53000D02*
X150300Y54300D01*
X161128D01*
X163919Y57091D02*
X184091D01*
X187100Y60100D01*
X203700D01*
X227004Y36796D01*
X240622Y36800D02*
X249798D01*
X240618Y36796D02*
X240622Y36800D01*
X227004Y36796D02*
X240618D01*
X249798Y36800D02*
X258980Y27618D01*
Y18980D02*
Y27618D01*
X245000Y5000D02*
X258980Y18980D01*
X65000Y95000D02*
X65447Y94553D01*
X149882Y58300D02*
X156214D01*
X158000Y60086D01*
Y61000D01*
X148300Y59882D02*
X149882Y58300D01*
X148300Y59882D02*
Y63700D01*
X146500Y65500D02*
X148300Y63700D01*
X151000Y61000D02*
Y65500D01*
X158000Y71500D02*
X161200Y68300D01*
X157172Y69500D02*
X160372Y66300D01*
X166700D02*
X172000Y61000D01*
X160372Y66300D02*
X166700D01*
X161200Y68300D02*
X173700D01*
X179000Y63000D01*
X179800Y68000D02*
X190714D01*
X176372Y74300D02*
X179672Y71000D01*
X188000D01*
X174672Y70300D02*
X178972Y66000D01*
X191714Y67000D02*
X192000D01*
X175500Y72300D02*
X179800Y68000D01*
X190714D02*
X191714Y67000D01*
X115000Y95000D02*
X123000Y87000D01*
X128065Y91935D02*
X128065D01*
X130500Y89500D01*
X137672D01*
X141336Y85836D01*
X126764Y93236D02*
Y93880D01*
Y93236D02*
X128065Y91935D01*
X126475Y94177D02*
X126768Y93884D01*
X125823Y94177D02*
X126475Y94177D01*
X125000Y95000D02*
X125823Y94177D01*
X177200Y76300D02*
X179200Y74300D01*
X193700D01*
X195000Y73000D01*
X212500Y71500D02*
X216721Y67279D01*
Y66382D02*
Y67279D01*
X218303Y64800D02*
X240618D01*
X208147Y71500D02*
X212500D01*
X216721Y66382D02*
X218303Y64800D01*
X206947Y70300D02*
X208147Y71500D01*
X203053Y70300D02*
X206947D01*
X200300Y73053D02*
X203053Y70300D01*
X207318Y73500D02*
X216035D01*
X206118Y72300D02*
X207318Y73500D01*
X189372Y76300D02*
X199714D01*
X200300Y73053D02*
Y75714D01*
X199714Y76300D02*
X200300Y75714D01*
X202300Y73882D02*
Y77200D01*
X201200Y78300D02*
X202300Y77200D01*
X203882Y72300D02*
X206118D01*
X202300Y73882D02*
X203882Y72300D01*
X190200Y78300D02*
X201200D01*
X185436Y80236D02*
X189372Y76300D01*
X167286Y80236D02*
X185436D01*
X166000Y79000D02*
X166050D01*
X167286Y80236D01*
X186264Y82236D02*
X190200Y78300D01*
X169279Y82236D02*
X186264D01*
X191215Y80300D02*
X203215D01*
X170107Y84236D02*
X187279D01*
X203215Y80300D02*
X204071Y79444D01*
X187279Y84236D02*
X191215Y80300D01*
X192043Y82300D02*
X204043D01*
X204899Y81444D01*
X170936Y86236D02*
X188107D01*
X192043Y82300D01*
X175000Y95000D02*
X179700Y90300D01*
X189872D01*
X193872Y86300D02*
X205700D01*
X205993Y86007D01*
X189872Y90300D02*
X193872Y86300D01*
X205993Y86007D02*
X206322Y85678D01*
X192872Y84300D02*
X204872D01*
X171764Y88236D02*
X188936D01*
X192872Y84300D01*
X194700Y88300D02*
X207156D01*
X208239Y87218D01*
X185823Y94177D02*
X188823D01*
X185000Y95000D02*
X185823Y94177D01*
X188823D02*
X194700Y88300D01*
X240618Y64800D02*
X243318Y67500D01*
X246193D01*
X142164Y87836D02*
X156507D01*
X135000Y95000D02*
X142164Y87836D01*
X158043Y86300D02*
X165215D01*
X156507Y87836D02*
X158043Y86300D01*
X165215D02*
X169279Y82236D01*
X191398Y34216D02*
X196716D01*
X200500Y38000D01*
X187882Y30700D02*
X191398Y34216D01*
X196475Y38000D02*
X197732Y39258D01*
Y40732D01*
X192353Y38000D02*
X196475D01*
X197732Y40732D02*
X198000Y41000D01*
X55000Y5000D02*
X59700Y9700D01*
X174911Y32700D02*
X176911Y34700D01*
X180700D02*
X184000Y38000D01*
X176911Y34700D02*
X180700D01*
X177740Y32700D02*
X187053D01*
X175740Y30700D02*
X177740Y32700D01*
X187053D02*
X192353Y38000D01*
X178568Y30700D02*
X187882D01*
X176568Y28700D02*
X178568Y30700D01*
X179396Y28700D02*
X186604D01*
X188566Y27566D02*
X191000Y30000D01*
X187738Y27566D02*
X188566D01*
X186604Y28700D02*
X187738Y27566D01*
X177396Y26700D02*
X179396Y28700D01*
X187975Y24500D02*
X194843D01*
X197732Y27389D02*
Y29732D01*
X198000Y30000D01*
X194843Y24500D02*
X197732Y27389D01*
X187147Y22500D02*
X195672D01*
X201872Y28700D01*
X213690Y11700D02*
X213832D01*
X212418Y11330D02*
X213690Y11700D01*
X213832D02*
X216000Y11700D01*
X204267Y9642D02*
X209599Y10477D01*
X212331Y11305D01*
X154010Y15485D02*
X154303Y15778D01*
X215414Y28700D02*
X216000Y29286D01*
X201872Y28700D02*
X215414D01*
X216000Y29286D02*
Y32417D01*
X216083Y32500D01*
X219268Y26700D02*
X219468Y26500D01*
X202700Y26700D02*
X219268D01*
X185000Y5000D02*
X185823Y5823D01*
X188823D02*
X193000Y10000D01*
X200528D02*
X200803Y10223D01*
X201333Y10652D01*
X185823Y5823D02*
X188823D01*
X193000Y10000D02*
X200528D01*
X148639Y7611D02*
X156470Y11485D01*
X156821Y11866D02*
X159458Y15276D01*
X156470Y11485D02*
X156609Y11624D01*
X156821Y11866D01*
X203538Y24700D02*
X212536D01*
X197000Y18162D02*
X203538Y24700D01*
X212536D02*
X213536Y23700D01*
X222190D01*
X222776Y24286D01*
Y32500D01*
X209769Y14858D02*
X209787Y14863D01*
X212316Y15504D01*
X209447Y14789D02*
X209769Y14858D01*
X212513Y15700D02*
X214463Y15993D01*
X212316Y15504D02*
X212512Y15700D01*
X214464Y15993D02*
X214479Y16008D01*
X216172Y17700D01*
X222776Y32500D02*
X223000Y32276D01*
X226161Y23361D02*
Y26500D01*
X203320Y11519D02*
X209854Y12831D01*
X215000Y13700D02*
X217000Y15700D01*
X209854Y12831D02*
X210224Y12910D01*
X213341Y13700D01*
X201333Y10652D02*
X201954Y10968D01*
X213341Y13700D02*
X215000Y13700D01*
X202715Y11298D02*
X203317Y11518D01*
X216000Y11700D02*
X216293Y11993D01*
X218000Y13700D01*
X198550Y5823D02*
X202042Y8652D01*
X216172Y17700D02*
X226886D01*
X195823Y5823D02*
X198550D01*
X195000Y5000D02*
X195823Y5823D01*
X217000Y15700D02*
X227715D01*
X207873Y6873D02*
X211619Y8858D01*
X206000Y5000D02*
X207873Y6873D01*
X211620Y8858D02*
X211622Y8860D01*
X205000Y5000D02*
X206000Y5000D01*
X215000Y9700D02*
X216872Y9700D01*
X217013Y9841D01*
X218872Y11700D01*
X229468Y23111D02*
Y32500D01*
X226058Y19700D02*
X229468Y23111D01*
X232854Y23668D02*
Y26500D01*
X226886Y17700D02*
X232854Y23668D01*
X235414Y23164D02*
X236000Y23750D01*
X235179Y23164D02*
X235414D01*
X227715Y15700D02*
X235179Y23164D01*
X236000Y23750D02*
Y32339D01*
X236161Y32500D01*
X215000Y5000D02*
X219700Y9700D01*
X249547Y20047D02*
Y32500D01*
X204071Y79444D02*
X206117D01*
X219421Y67500D02*
Y75714D01*
X218835Y76300D02*
X219128Y76007D01*
X213729Y76300D02*
X218835D01*
X211365Y78664D02*
X213729Y76300D01*
X210469Y78803D02*
X211365Y78664D01*
X206117Y79444D02*
X210469Y78803D01*
X219128Y76007D02*
X219421Y75714D01*
X208872Y90300D02*
X210224Y88947D01*
X211818Y88714D02*
X216127Y88045D01*
X216358Y87814D01*
X210224Y88947D02*
X211818Y88714D01*
X216358Y87814D02*
X217871Y86300D01*
X222728Y73500D02*
Y77714D01*
X222143Y78300D02*
X222435Y78007D01*
X214558Y78300D02*
X222143D01*
X212317Y80540D02*
X214558Y78300D01*
X222435Y78007D02*
X222728Y77714D01*
X210767Y80781D02*
X212317Y80540D01*
X206263Y81444D02*
X210767Y80781D01*
X204899Y81444D02*
X206263D01*
X204872Y84300D02*
X205728Y83444D01*
X206410D01*
X211066Y82759D01*
X226114Y67500D02*
Y79714D01*
X225528Y80300D02*
X225821Y80007D01*
X215386Y80300D02*
X225528D01*
X213270Y82416D02*
X215386Y80300D01*
X211066Y82759D02*
X213270Y82416D01*
X225821Y80007D02*
X226114Y79714D01*
X229128Y81002D02*
X229421Y80709D01*
X206556Y85444D02*
X206884Y85396D01*
X211366Y84736D02*
X214222Y84293D01*
X206884Y85396D02*
X211366Y84736D01*
X214222Y84293D02*
X216215Y82300D01*
X227831D02*
X229128Y81002D01*
X216215Y82300D02*
X227831D01*
X206322Y85678D02*
X206556Y85444D01*
X229421Y73500D02*
Y80709D01*
X208239Y87218D02*
X211664Y86714D01*
X215175Y86168D01*
X217043Y84300D02*
X228659D01*
X215175Y86168D02*
X217043Y84300D01*
X228952Y84007D02*
X232807Y80152D01*
X228659Y84300D02*
X228952Y84007D01*
X199700Y90300D02*
X208872D01*
X199407Y90593D02*
X199700Y90300D01*
X195000Y95000D02*
X199407Y90593D01*
X235821Y80022D02*
X236114Y79729D01*
X217871Y86300D02*
X229543D01*
X235821Y80022D01*
X236114Y73500D02*
Y79729D01*
X212756Y90592D02*
X216757Y89971D01*
X217079Y89921D01*
X218700Y88300D01*
X227775D01*
X211335Y90884D02*
X211953Y90745D01*
X227775Y88300D02*
X229487Y88356D01*
X205000Y95000D02*
X206033Y93967D01*
X208033D02*
X210848Y91152D01*
X211053Y90947D02*
X211335Y90884D01*
X206033Y93967D02*
X208033D01*
X210848Y91152D02*
X211053Y90947D01*
X229487Y88356D02*
X230316D01*
X230609Y88063D01*
X239500Y79172D01*
X215000Y95000D02*
X219700Y90300D01*
X226947D01*
X227002Y90356D02*
X231144D01*
X226947Y90300D02*
X227002Y90356D01*
X231144D02*
X242807Y78693D01*
X239500Y67500D02*
Y79172D01*
X145000Y95000D02*
X150164Y89836D01*
X157336D01*
X158872Y88300D01*
X166043D01*
X170107Y84236D01*
X159700Y90300D02*
X166872D01*
X155000Y95000D02*
X159700Y90300D01*
X166872D02*
X170936Y86236D01*
X165000Y95000D02*
X171764Y88236D01*
X232807Y67500D02*
Y80152D01*
X242807Y73500D02*
Y78693D01*
X235000Y95000D02*
X249500Y80500D01*
Y73500D02*
Y80500D01*
D51*
X22500Y60984D02*
D03*
Y95000D02*
D03*
Y39016D02*
D03*
Y5000D02*
D03*
D52*
X6752Y60984D02*
D03*
Y95000D02*
D03*
Y39016D02*
D03*
Y5000D02*
D03*
D63*
X35408Y83411D02*
X39051D01*
X45760Y76701D01*
X46701D01*
X35989Y82008D02*
X38470D01*
X45179Y75299D02*
X46701D01*
X32798Y80801D02*
X35408Y83411D01*
X46701Y76701D02*
X48000Y78000D01*
X38470Y82008D02*
X45179Y75299D01*
X46701D02*
X48000Y74000D01*
X34201Y78298D02*
X35500Y77000D01*
X32798Y78298D02*
Y80801D01*
X31500Y77000D02*
X32798Y78298D01*
X34201D02*
Y80220D01*
X35989Y82008D01*
X174352Y41000D02*
X191900D01*
X174934Y42403D02*
X191319D01*
X191900Y41000D02*
X198498Y47598D01*
X173051Y42301D02*
X174352Y41000D01*
X173632Y43705D02*
X174934Y42403D01*
X191319D02*
X197917Y49002D01*
X45000Y22000D02*
X46299Y20701D01*
X57538D02*
X59336Y18903D01*
X46299Y20701D02*
X57538D01*
X46299Y19298D02*
X56956D01*
X58755Y17500D01*
X59336Y18903D02*
X66500D01*
X45000Y18000D02*
X46299Y19298D01*
X58755Y17500D02*
X67081D01*
X66500Y18903D02*
X92795Y45199D01*
X67081Y17500D02*
X93377Y43795D01*
X142666D01*
X92795Y45199D02*
X142085D01*
X145888Y49002D01*
X142666Y43795D02*
X146469Y47598D01*
X186248D02*
X187247Y46600D01*
X146469Y47598D02*
X186248D01*
X187247Y50000D02*
X187500D01*
X186248Y49002D02*
X187247Y50000D01*
Y46600D02*
X187500D01*
X145888Y49002D02*
X186248D01*
X75800Y21000D02*
X77597Y22797D01*
X79000Y20858D02*
Y23816D01*
Y20858D02*
X79314Y20543D01*
X77597Y22797D02*
Y24397D01*
X90899Y37699D01*
X79000Y23816D02*
X91480Y36296D01*
X148580D01*
X90899Y37699D02*
X147998D01*
X154005Y43705D02*
X173632D01*
X148580Y36296D02*
X154586Y42301D01*
X147998Y37699D02*
X154005Y43705D01*
X154586Y42301D02*
X173051D01*
X198498Y47598D02*
X202147D01*
Y49002D02*
X202500Y49355D01*
X197917Y49002D02*
X202147D01*
X202500Y44800D02*
Y47245D01*
X202147Y47598D02*
X202500Y47245D01*
Y49355D02*
Y51800D01*
D64*
X265000Y5000D02*
D03*
Y95000D02*
D03*
D65*
X255000Y5000D02*
D03*
X245000D02*
D03*
X235000D02*
D03*
X225000D02*
D03*
X215000D02*
D03*
X205000D02*
D03*
X195000D02*
D03*
X185000D02*
D03*
X175000D02*
D03*
X165000D02*
D03*
X155000D02*
D03*
X145000D02*
D03*
X135000D02*
D03*
X125000D02*
D03*
X115000D02*
D03*
X105000D02*
D03*
X95000D02*
D03*
X85000D02*
D03*
X75000D02*
D03*
X65000D02*
D03*
X55000D02*
D03*
X45000D02*
D03*
X35000D02*
D03*
X255000Y95000D02*
D03*
X245000D02*
D03*
X235000D02*
D03*
X225000D02*
D03*
X215000D02*
D03*
X205000D02*
D03*
X195000D02*
D03*
X185000D02*
D03*
X175000D02*
D03*
X165000D02*
D03*
X155000D02*
D03*
X145000D02*
D03*
X135000D02*
D03*
X125000D02*
D03*
X115000D02*
D03*
X105000D02*
D03*
X95000D02*
D03*
X85000D02*
D03*
X75000D02*
D03*
X65000D02*
D03*
X55000D02*
D03*
X45000D02*
D03*
X35000D02*
D03*
D66*
X37500Y50000D02*
D03*
Y45000D02*
D03*
X142500Y50000D02*
D03*
D67*
X37500Y55000D02*
D03*
D68*
X137500Y50000D02*
D03*
D69*
X186500Y63000D02*
D03*
X47500Y33000D02*
D03*
X75000Y89000D02*
D03*
X83000Y84500D02*
D03*
X64500Y68500D02*
D03*
X45500Y59500D02*
D03*
X61500Y51000D02*
D03*
X29500Y90500D02*
D03*
X32000Y58000D02*
D03*
X29000Y62500D02*
D03*
X45000Y72018D02*
D03*
Y81000D02*
D03*
X36500Y86000D02*
D03*
X37000Y74000D02*
D03*
X31500Y77000D02*
D03*
X35500D02*
D03*
X48000Y74000D02*
D03*
Y78000D02*
D03*
X184000Y51500D02*
D03*
Y45000D02*
D03*
X45000Y22000D02*
D03*
Y18000D02*
D03*
X187500Y46600D02*
D03*
Y50000D02*
D03*
X206000Y45000D02*
D03*
Y51500D02*
D03*
X81000Y17500D02*
D03*
X74500Y18000D02*
D03*
X79314Y20543D02*
D03*
X75800Y21000D02*
D03*
X202500Y44800D02*
D03*
Y51800D02*
D03*
X32000Y42000D02*
D03*
X29000Y39000D02*
D03*
X45000Y26000D02*
D03*
Y14000D02*
D03*
X37000Y24000D02*
D03*
Y16000D02*
D03*
X30000Y9500D02*
D03*
X49000Y16000D02*
D03*
X53000D02*
D03*
X57000D02*
D03*
X51000Y29000D02*
D03*
X55000D02*
D03*
X59000D02*
D03*
X117500Y47500D02*
D03*
X112500D02*
D03*
X107500D02*
D03*
X102500D02*
D03*
X97500D02*
D03*
Y40000D02*
D03*
X102500D02*
D03*
X107500D02*
D03*
X112500D02*
D03*
X117500D02*
D03*
Y32500D02*
D03*
X112500D02*
D03*
X107500D02*
D03*
X102500D02*
D03*
X97500D02*
D03*
X124000Y40000D02*
D03*
X149000Y53000D02*
D03*
X165000Y61000D02*
D03*
X73500Y75500D02*
D03*
X68500D02*
D03*
X73000Y79000D02*
D03*
X68500D02*
D03*
X70000Y89000D02*
D03*
X48000Y85000D02*
D03*
X47000Y68000D02*
D03*
X65000Y54000D02*
D03*
X79000Y49000D02*
D03*
Y54000D02*
D03*
Y59000D02*
D03*
X73000Y65000D02*
D03*
X95000Y55000D02*
D03*
Y60000D02*
D03*
X158000Y61000D02*
D03*
X151000D02*
D03*
X88000Y72000D02*
D03*
X97000Y87000D02*
D03*
Y81000D02*
D03*
X132358Y83858D02*
D03*
X156000Y79000D02*
D03*
X161500Y63500D02*
D03*
X172000Y61000D02*
D03*
X188000Y71000D02*
D03*
X179000Y63000D02*
D03*
X196000D02*
D03*
X192000Y67000D02*
D03*
X195000Y73000D02*
D03*
X166000Y79000D02*
D03*
X177000Y38000D02*
D03*
X200500D02*
D03*
X198000Y41000D02*
D03*
X184000Y38000D02*
D03*
X191000Y30000D02*
D03*
X198000D02*
D03*
X156000Y40000D02*
D03*
X162000Y14000D02*
D03*
X169000Y20000D02*
D03*
X205000Y22000D02*
D03*
X264500Y18000D02*
D03*
X254000Y89000D02*
D03*
X250000D02*
D03*
X246000D02*
D03*
X259500Y82000D02*
D03*
X242800Y46800D02*
D03*
X236200D02*
D03*
X242800Y53200D02*
D03*
X236200D02*
D03*
X250008Y56492D02*
D03*
Y49996D02*
D03*
Y43500D02*
D03*
X239508Y60504D02*
D03*
X239500Y39496D02*
D03*
X229000Y43508D02*
D03*
Y50004D02*
D03*
Y56500D02*
D03*
X259539Y73500D02*
D03*
X263004Y73469D02*
D03*
Y70122D02*
D03*
Y66776D02*
D03*
Y63429D02*
D03*
Y60083D02*
D03*
Y56736D02*
D03*
Y53390D02*
D03*
Y50043D02*
D03*
Y46697D02*
D03*
Y43350D02*
D03*
Y40004D02*
D03*
Y36658D02*
D03*
Y33311D02*
D03*
Y29965D02*
D03*
Y26618D02*
D03*
X181500Y77000D02*
D03*
X205000Y75000D02*
D03*
X246193Y67500D02*
D03*
X256279Y26500D02*
D03*
X252933D02*
D03*
X216035Y73500D02*
D03*
X216083Y32500D02*
D03*
X246240Y26500D02*
D03*
X249547Y32500D02*
D03*
X239547Y26500D02*
D03*
X242854Y32500D02*
D03*
X232854Y26500D02*
D03*
X236161Y32500D02*
D03*
X226161Y26500D02*
D03*
X229468Y32500D02*
D03*
X219468Y26500D02*
D03*
X222776Y32500D02*
D03*
X222728Y73500D02*
D03*
X219421Y67500D02*
D03*
X229421Y73500D02*
D03*
X226114Y67500D02*
D03*
X236114Y73500D02*
D03*
X232807Y67500D02*
D03*
X239500D02*
D03*
X242807Y73500D02*
D03*
X249500D02*
D03*
D70*
X67500Y70500D02*
X76500D01*
X64500Y68500D02*
X65500D01*
X67500Y70500D01*
X76500D02*
X83000Y77000D01*
Y84500D01*
X49000Y50000D02*
X60500D01*
X37500D02*
X49000D01*
X51700Y52700D02*
Y62640D01*
X49000Y50000D02*
X51700Y52700D01*
X55000Y65940D02*
Y95000D01*
X51700Y62640D02*
X55000Y65940D01*
X60500Y50000D02*
X61500Y51000D01*
D78*
X82313Y90566D02*
G03*
X82774Y90304I707J707D01*
G01*
X80947Y92621D02*
G03*
X82258Y90622I20718J12160D01*
G01*
X80861Y92707D02*
X80860Y92707D01*
X230511Y14713D02*
G03*
X230210Y14568I4489J-9713D01*
G01*
X228945Y13827D02*
G03*
X228726Y13700I2469J-4515D01*
G01*
X233148Y13501D02*
G03*
X230282Y12310I1852J-8501D01*
G01*
X229961Y12103D02*
G03*
X229403Y11731I1453J-2791D01*
G01*
X237080Y11369D02*
G03*
X230263Y9738I-2080J-6369D01*
G01*
X237340Y9076D02*
G03*
X230330Y5527I-2340J-4076D01*
G01*
X208273Y17300D02*
G03*
X208272Y17300I221J-975D01*
G01*
X198933Y14177D02*
G03*
X198931Y14176I514J-858D01*
G01*
X212418Y11330D02*
G03*
X212331Y11305I2582J-8838D01*
G01*
X204267Y9642D02*
G03*
X204263Y9642I734J-4642D01*
G01*
D02*
G03*
X202042Y8652I737J-4642D01*
G01*
X148639Y7611D02*
G03*
X145000Y5000I6119J-12369D01*
G01*
X212512Y15700D02*
G03*
X212513Y15700I-148J989D01*
G01*
X214463Y15993D02*
G03*
X214464Y15993I-148J989D01*
G01*
X203317Y11518D02*
G03*
X203320Y11519I-342J940D01*
G01*
X202715Y11298D02*
G03*
X201954Y10968I2285J-6298D01*
G01*
X211620Y8858D02*
X211619Y8858D01*
X215000Y9700D02*
G03*
X211622Y8860I0J-7208D01*
G01*
X211953Y90745D02*
G03*
X212756Y90592I2670J11867D01*
G01*
D79*
X83279Y90192D02*
D03*
X230096Y5293D02*
D03*
X237593Y9076D02*
D03*
X126768Y93884D02*
D03*
M02*
