G04*
G04 #@! TF.GenerationSoftware,Altium Limited,Altium Designer,24.5.2 (23)*
G04*
G04 Layer_Color=65535*
%FSLAX25Y25*%
%MOIN*%
G70*
G04*
G04 #@! TF.SameCoordinates,24FF50D2-DFE2-4597-A0F4-7CAA859AE4CF*
G04*
G04*
G04 #@! TF.FilePolarity,Positive*
G04*
G01*
G75*
%ADD10C,0.00984*%
%ADD11C,0.00600*%
%ADD12C,0.00787*%
%ADD13C,0.00500*%
%ADD14R,0.05600X0.01461*%
D10*
X29783Y90571D02*
G03*
X29783Y90571I-492J0D01*
G01*
Y34587D02*
G03*
X29783Y34587I-492J0D01*
G01*
X66189Y41992D02*
G03*
X66189Y41992I-492J0D01*
G01*
X78992Y88500D02*
G03*
X78992Y88500I-492J0D01*
G01*
X161358Y16142D02*
G03*
X161358Y16142I-492J0D01*
G01*
Y66142D02*
G03*
X161358Y66142I-492J0D01*
G01*
D11*
X75000Y9500D02*
Y11500D01*
X125000Y9500D02*
Y11500D01*
X175000Y9500D02*
Y11500D01*
X225000Y9500D02*
Y11500D01*
X75000Y88500D02*
Y90500D01*
X125000Y88500D02*
Y90500D01*
X175000Y88500D02*
Y90500D01*
X223000Y89000D02*
Y91000D01*
X39800Y39100D02*
X39900Y39200D01*
X39800Y34700D02*
Y39100D01*
Y34700D02*
X48200D01*
Y39200D01*
X176800Y16200D02*
X181300D01*
Y23800D01*
X176800D02*
X181300D01*
X176800Y16200D02*
Y23800D01*
X268200Y83200D02*
Y87700D01*
X259800Y83200D02*
X268200D01*
X259800D02*
Y87600D01*
X259900Y87700D01*
X170500Y14900D02*
X175500D01*
Y24300D01*
X170500D02*
X175500D01*
X170500Y14900D02*
Y24300D01*
X217300Y12300D02*
Y16800D01*
X209700D02*
X217300D01*
X209700Y12300D02*
Y16800D01*
Y12300D02*
X217300D01*
X207300D02*
Y16800D01*
X199700D02*
X207300D01*
X199700Y12300D02*
Y16800D01*
Y12300D02*
X207300D01*
X39800Y65100D02*
X39900Y65200D01*
X39800Y60700D02*
Y65100D01*
Y60700D02*
X48200D01*
Y65200D01*
X69800Y53800D02*
Y58300D01*
X78200D01*
Y53900D02*
Y58300D01*
X78100Y53800D02*
X78200Y53900D01*
X69800Y63100D02*
X69900Y63200D01*
X69800Y58700D02*
Y63100D01*
Y58700D02*
X78200D01*
Y63200D01*
X259800Y12300D02*
Y16800D01*
X268200D01*
Y12400D02*
Y16800D01*
X268100Y12300D02*
X268200Y12400D01*
X95200Y77700D02*
Y82200D01*
X86800Y77700D02*
X95200D01*
X86800D02*
Y82100D01*
X86900Y82200D01*
X67100Y63200D02*
X67200Y63100D01*
X62700Y63200D02*
X67100D01*
X62700Y54800D02*
Y63200D01*
Y54800D02*
X67200D01*
X48800Y65800D02*
Y70300D01*
X57200D01*
Y65900D02*
Y70300D01*
X57100Y65800D02*
X57200Y65900D01*
X57100Y82800D02*
X57200Y82900D01*
Y87300D01*
X48800D02*
X57200D01*
X48800Y82800D02*
Y87300D01*
X55800Y31900D02*
X55900Y31800D01*
X60300D01*
Y40200D01*
X55800D02*
X60300D01*
X55700Y17800D02*
X60200D01*
X55700D02*
Y26200D01*
X60100D01*
X60200Y26100D01*
X55100Y26200D02*
X55200Y26100D01*
X50700Y26200D02*
X55100D01*
X50700Y17800D02*
Y26200D01*
Y17800D02*
X55200D01*
X251200Y83200D02*
Y87700D01*
X242800Y83200D02*
X251200D01*
X242800D02*
Y87600D01*
X242900Y87700D01*
X251300Y87600D02*
X251400Y87700D01*
X251300Y83200D02*
Y87600D01*
Y83200D02*
X259700D01*
Y87700D01*
X162700Y15800D02*
X167200D01*
X162700D02*
Y24200D01*
X167100D01*
X167200Y24100D01*
X167100Y71200D02*
X167200Y71100D01*
X162700Y71200D02*
X167100D01*
X162700Y62800D02*
Y71200D01*
Y62800D02*
X167200D01*
X98800Y79200D02*
X103300D01*
Y86800D01*
X98800D02*
X103300D01*
X98800Y79200D02*
Y86800D01*
X98700Y68800D02*
X103200D01*
X98700Y61200D02*
Y68800D01*
Y61200D02*
X103200D01*
Y68800D01*
X38700Y18800D02*
X43200D01*
X38700Y11200D02*
Y18800D01*
Y11200D02*
X43200D01*
Y18800D01*
X38800Y21200D02*
X43300D01*
Y28800D01*
X38800D02*
X43300D01*
X38800Y21200D02*
Y28800D01*
X30900Y34700D02*
X37100D01*
X30900D02*
Y39300D01*
X37100D01*
Y34700D02*
Y39300D01*
X35800Y13621D02*
Y19820D01*
X31200Y13621D02*
X35800D01*
X31200D02*
Y19820D01*
X35800D01*
X31200Y20179D02*
Y26379D01*
X35800D01*
Y20179D02*
Y26379D01*
X31200Y20179D02*
X35800D01*
X66798Y53200D02*
X74398D01*
X66798Y48700D02*
X74398D01*
X66798D02*
Y53200D01*
X70200Y48800D02*
X77800D01*
X70200Y53300D02*
X77800D01*
Y48800D02*
Y53300D01*
X181200Y76200D02*
Y83800D01*
X176700Y76200D02*
X181200D01*
X176700D02*
Y83800D01*
X181200D01*
X87200Y82800D02*
X94800D01*
X87200D02*
Y87300D01*
X94800D01*
Y82800D02*
Y87300D01*
X49200Y75700D02*
X56800D01*
Y71200D02*
Y75700D01*
X49200Y71200D02*
X56800D01*
X49200D02*
Y75700D01*
Y80700D02*
X56800D01*
Y76200D02*
Y80700D01*
X49200Y76200D02*
X56800D01*
X49200D02*
Y80700D01*
X57800Y55200D02*
Y62800D01*
X62300D01*
Y55200D02*
Y62800D01*
X57800Y55200D02*
X62300D01*
X170500Y85100D02*
X175500D01*
X170500Y75700D02*
Y85100D01*
Y75700D02*
X175500D01*
Y85100D01*
X85200Y58200D02*
X92800D01*
Y53700D02*
Y58200D01*
X85200Y53700D02*
X92800D01*
X85200D02*
Y58200D01*
Y63800D02*
X92800D01*
X85200D02*
Y68300D01*
X92800D01*
Y63800D02*
Y68300D01*
X31200Y76100D02*
X35800D01*
X31200Y69900D02*
Y76100D01*
Y69900D02*
X35800D01*
Y76100D01*
X31200Y77900D02*
X35800D01*
Y84100D01*
X31200D02*
X35800D01*
X31200Y77900D02*
Y84100D01*
X37100Y60700D02*
Y65300D01*
X30900D02*
X37100D01*
X30900Y60700D02*
Y65300D01*
Y60700D02*
X37100D01*
X38800Y79200D02*
Y86800D01*
X43300D01*
Y79200D02*
Y86800D01*
X38800Y79200D02*
X43300D01*
X43200Y69200D02*
Y76800D01*
X38700Y69200D02*
X43200D01*
X38700D02*
Y76800D01*
X43200D01*
X85200Y58800D02*
X92800D01*
X85200D02*
Y63300D01*
X92800D01*
Y58800D02*
Y63300D01*
X33250Y41000D02*
Y59000D01*
Y41000D02*
X41750D01*
Y59000D01*
X33250D02*
X41750D01*
X133500Y45750D02*
Y54250D01*
X146500D01*
Y45750D02*
Y54250D01*
X133500Y45750D02*
X146500D01*
X193200Y86200D02*
X200800D01*
Y81700D02*
Y86200D01*
X193200Y81700D02*
X200800D01*
X193200D02*
Y86200D01*
Y81200D02*
X200800D01*
Y76700D02*
Y81200D01*
X193200Y76700D02*
X200800D01*
X193200D02*
Y81200D01*
X162800Y25200D02*
Y32800D01*
X167300D01*
Y25200D02*
Y32800D01*
X162800Y25200D02*
X167300D01*
X189798Y54000D02*
X197398D01*
X189798Y49500D02*
X197398D01*
X189798D02*
Y54000D01*
Y47000D02*
X197398D01*
X189798Y42500D02*
X197398D01*
X189798D02*
Y47000D01*
X193200Y49600D02*
X200800D01*
X193200Y54100D02*
X200800D01*
Y49600D02*
Y54100D01*
X193200Y42600D02*
X200800D01*
X193200Y47100D02*
X200800D01*
Y42600D02*
Y47100D01*
X170600Y26600D02*
Y30599D01*
X172599D01*
X173266Y29932D01*
Y28599D01*
X172599Y27933D01*
X170600D01*
X176598Y30599D02*
X175265D01*
X174599Y29932D01*
Y27266D01*
X175265Y26600D01*
X176598D01*
X177264Y27266D01*
Y29932D01*
X176598Y30599D01*
X178597D02*
Y26600D01*
X179930Y27933D01*
X181263Y26600D01*
Y30599D01*
X185262D02*
X182596D01*
Y26600D01*
X185262D01*
X182596Y28599D02*
X183929D01*
X186595Y26600D02*
Y30599D01*
X188594D01*
X189261Y29932D01*
Y28599D01*
X188594Y27933D01*
X186595D01*
X187928D02*
X189261Y26600D01*
X170600Y73599D02*
Y70266D01*
X171266Y69600D01*
X172599D01*
X173266Y70266D01*
Y73599D01*
X177264Y72932D02*
X176598Y73599D01*
X175265D01*
X174599Y72932D01*
Y72266D01*
X175265Y71599D01*
X176598D01*
X177264Y70933D01*
Y70266D01*
X176598Y69600D01*
X175265D01*
X174599Y70266D01*
X181263Y73599D02*
X178597D01*
Y69600D01*
X181263D01*
X178597Y71599D02*
X179930D01*
X182596Y69600D02*
Y73599D01*
X184596D01*
X185262Y72932D01*
Y71599D01*
X184596Y70933D01*
X182596D01*
X183929D02*
X185262Y69600D01*
X124672Y60599D02*
Y56600D01*
X126671D01*
X127337Y57266D01*
Y57933D01*
X126671Y58599D01*
X124672D01*
X126671D01*
X127337Y59266D01*
Y59932D01*
X126671Y60599D01*
X124672D01*
X130670D02*
X129337D01*
X128670Y59932D01*
Y57266D01*
X129337Y56600D01*
X130670D01*
X131336Y57266D01*
Y59932D01*
X130670Y60599D01*
X134668D02*
X133335D01*
X132669Y59932D01*
Y57266D01*
X133335Y56600D01*
X134668D01*
X135335Y57266D01*
Y59932D01*
X134668Y60599D01*
X136668D02*
X139333D01*
X138001D01*
Y56600D01*
X140666D02*
X143332Y59266D01*
X144665Y60599D02*
Y57266D01*
X145332Y56600D01*
X146665D01*
X147331Y57266D01*
Y60599D01*
X151330Y59932D02*
X150663Y60599D01*
X149330D01*
X148664Y59932D01*
Y59266D01*
X149330Y58599D01*
X150663D01*
X151330Y57933D01*
Y57266D01*
X150663Y56600D01*
X149330D01*
X148664Y57266D01*
X152663Y56600D02*
Y60599D01*
X154662D01*
X155328Y59932D01*
Y58599D01*
X154662Y57933D01*
X152663D01*
X153996D02*
X155328Y56600D01*
X130670Y38600D02*
Y42599D01*
X132669D01*
X133335Y41932D01*
Y40599D01*
X132669Y39933D01*
X130670D01*
X132003D02*
X133335Y38600D01*
X137334Y42599D02*
X134668D01*
Y38600D01*
X137334D01*
X134668Y40599D02*
X136001D01*
X141333Y41932D02*
X140666Y42599D01*
X139333D01*
X138667Y41932D01*
Y41266D01*
X139333Y40599D01*
X140666D01*
X141333Y39933D01*
Y39266D01*
X140666Y38600D01*
X139333D01*
X138667Y39266D01*
X145332Y42599D02*
X142666D01*
Y38600D01*
X145332D01*
X142666Y40599D02*
X143999D01*
X146665Y42599D02*
X149330D01*
X147997D01*
Y38600D01*
X120600Y47600D02*
Y51599D01*
X122599D01*
X123266Y50932D01*
Y49599D01*
X122599Y48933D01*
X120600D01*
X121933D02*
X123266Y47600D01*
X127264Y51599D02*
X124599D01*
Y47600D01*
X127264D01*
X124599Y49599D02*
X125932D01*
X131263Y50932D02*
X130597Y51599D01*
X129264D01*
X128597Y50932D01*
Y48266D01*
X129264Y47600D01*
X130597D01*
X131263Y48266D01*
Y49599D01*
X129930D01*
X148600Y50932D02*
X149267Y51599D01*
X150599D01*
X151266Y50932D01*
Y50266D01*
X150599Y49599D01*
X149933D01*
X150599D01*
X151266Y48933D01*
Y48266D01*
X150599Y47600D01*
X149267D01*
X148600Y48266D01*
X152599Y51599D02*
Y48933D01*
X153932Y47600D01*
X155264Y48933D01*
Y51599D01*
X156597Y50932D02*
X157264Y51599D01*
X158597D01*
X159263Y50932D01*
Y50266D01*
X158597Y49599D01*
X157930D01*
X158597D01*
X159263Y48933D01*
Y48266D01*
X158597Y47600D01*
X157264D01*
X156597Y48266D01*
X43600Y57599D02*
Y54266D01*
X44266Y53600D01*
X45599D01*
X46266Y54266D01*
Y57599D01*
X50265Y56932D02*
X49598Y57599D01*
X48265D01*
X47599Y56932D01*
Y56266D01*
X48265Y55599D01*
X49598D01*
X50265Y54933D01*
Y54266D01*
X49598Y53600D01*
X48265D01*
X47599Y54266D01*
X51597Y57599D02*
Y53600D01*
X53597D01*
X54263Y54266D01*
Y54933D01*
X53597Y55599D01*
X51597D01*
X53597D01*
X54263Y56266D01*
Y56932D01*
X53597Y57599D01*
X51597D01*
X55596Y53600D02*
X56929D01*
X56263D01*
Y57599D01*
X55596Y56932D01*
X43600Y45599D02*
Y42266D01*
X44266Y41600D01*
X45599D01*
X46266Y42266D01*
Y45599D01*
X50265Y44932D02*
X49598Y45599D01*
X48265D01*
X47599Y44932D01*
Y44266D01*
X48265Y43599D01*
X49598D01*
X50265Y42933D01*
Y42266D01*
X49598Y41600D01*
X48265D01*
X47599Y42266D01*
X51597Y45599D02*
Y41600D01*
X53597D01*
X54263Y42266D01*
Y42933D01*
X53597Y43599D01*
X51597D01*
X53597D01*
X54263Y44266D01*
Y44932D01*
X53597Y45599D01*
X51597D01*
X58262Y41600D02*
X55596D01*
X58262Y44266D01*
Y44932D01*
X57595Y45599D01*
X56263D01*
X55596Y44932D01*
X43600Y49599D02*
X46266D01*
X44933Y50932D02*
Y48266D01*
X50265Y51599D02*
X47599D01*
Y49599D01*
X48932Y50266D01*
X49598D01*
X50265Y49599D01*
Y48266D01*
X49598Y47600D01*
X48265D01*
X47599Y48266D01*
X51597Y51599D02*
Y48933D01*
X52930Y47600D01*
X54263Y48933D01*
Y51599D01*
X2600Y56599D02*
Y53266D01*
X3266Y52600D01*
X4599D01*
X5266Y53266D01*
Y56599D01*
X6599Y52600D02*
Y55266D01*
X7932Y56599D01*
X9264Y55266D01*
Y52600D01*
Y54599D01*
X6599D01*
X10597Y52600D02*
Y56599D01*
X12597D01*
X13263Y55932D01*
Y54599D01*
X12597Y53933D01*
X10597D01*
X11930D02*
X13263Y52600D01*
X14596Y56599D02*
X17262D01*
X15929D01*
Y52600D01*
X5266Y47599D02*
X2600D01*
Y43600D01*
X5266D01*
X2600Y45599D02*
X3933D01*
X9264Y46932D02*
X8598Y47599D01*
X7265D01*
X6599Y46932D01*
Y46266D01*
X7265Y45599D01*
X8598D01*
X9264Y44933D01*
Y44266D01*
X8598Y43600D01*
X7265D01*
X6599Y44266D01*
X10597Y43600D02*
Y47599D01*
X12597D01*
X13263Y46932D01*
Y45599D01*
X12597Y44933D01*
X10597D01*
X234266Y16599D02*
X232933D01*
X233599D01*
Y13266D01*
X232933Y12600D01*
X232266D01*
X231600Y13266D01*
X238264Y12600D02*
X235599D01*
X238264Y15266D01*
Y15932D01*
X237598Y16599D01*
X236265D01*
X235599Y15932D01*
X234266Y87599D02*
X232933D01*
X233599D01*
Y84266D01*
X232933Y83600D01*
X232266D01*
X231600Y84266D01*
X235599Y83600D02*
X236932D01*
X236265D01*
Y87599D01*
X235599Y86932D01*
X30100Y53100D02*
X31433D01*
X30766D01*
Y57099D01*
X30100Y56432D01*
D12*
X12559Y95984D02*
X17480D01*
X-1909D02*
X945D01*
X-1909Y60000D02*
Y95984D01*
X12559Y60000D02*
X17480D01*
X-1909D02*
X945D01*
X-1909Y4016D02*
X945D01*
X12559D02*
X17480D01*
X-1909D02*
Y40000D01*
X945D01*
X12559D02*
X17480D01*
X112000Y75291D02*
X114559D01*
Y78146D01*
X112000Y86709D02*
X114559D01*
Y83854D02*
Y86709D01*
X112000Y61291D02*
X114559D01*
Y64146D01*
X112000Y72709D02*
X114559D01*
Y69854D02*
Y72709D01*
X70323Y15811D02*
X85677D01*
X70323Y42189D02*
X85677D01*
Y15811D02*
Y42189D01*
X70323Y15811D02*
Y42189D01*
X76906Y84874D02*
X78874D01*
Y82906D02*
Y84874D01*
X63126D02*
X65095D01*
X63126Y82906D02*
Y84874D01*
X76906Y69126D02*
X78874D01*
Y71095D01*
X63126Y69126D02*
X65095D01*
X63126D02*
Y71095D01*
X128878Y13189D02*
X151122D01*
X128189Y20177D02*
Y29823D01*
X128878Y36811D02*
X151122D01*
X151811Y20177D02*
Y29823D01*
X128878Y63189D02*
X151122D01*
X128189Y70177D02*
Y79823D01*
X128878Y86811D02*
X151122D01*
X151811Y70177D02*
Y79823D01*
D13*
X269917Y80315D02*
X289799D01*
X209090Y19685D02*
Y80315D01*
X269917Y19685D02*
X289799D01*
Y80315D01*
D14*
X173000Y15230D02*
D03*
Y84770D02*
D03*
M02*
